# MagicaVoxel @ Ephtracy

# group
o 

# material
mtllib EnemySkeleton1-4.mtl
usemtl palette

# normals
vn -1 0 0
vn 1 0 0
vn 0 0 1
vn 0 0 -1
vn 0 -1 0
vn 0 1 0

# texcoords
vt 0.876953 0.5
vt 0.884766 0.5
vt 0.939453 0.5

# verts
v -1.4 4.7 -1.49012e-007
v -1.4 4.7 -0.1
v -1.4 5 0.3
v -1.4 5 -1.49012e-007
v -1.4 5.1 0.3
v -1.4 5.1 0.2
v -1.4 5.2 0.3
v -1.4 5.2 0.2
v -1.4 5.3 0.3
v -1.4 5.3 0.2
v -1.4 5.3 -1.49012e-007
v -1.4 5.3 -0.1
v -1.4 5.4 0.2
v -1.4 5.4 -1.49012e-007
v -1.3 4.4 0.2
v -1.3 4.4 -1.49012e-007
v -1.3 4.7 -1.49012e-007
v -1.3 4.8 0.3
v -1.3 4.8 0.2
v -1.3 5 0.3
v -1.3 5 0.2
v -1.3 5 -1.49012e-007
v -1.3 5.3 0.3
v -1.3 5.3 0.2
v -1.3 5.3 -1.49012e-007
v -1.3 5.3 -0.1
v -1.3 5.4 0.3
v -1.3 5.4 0.2
v -1.3 5.4 -1.49012e-007
v -1.3 5.4 -0.1
v -1.3 5.5 0.2
v -1.3 5.5 -1.49012e-007
v -1.2 4.8 -1.49012e-007
v -1.2 4.8 -0.1
v -1.2 4.9 -1.49012e-007
v -1.2 4.9 -0.1
v -1.2 5.4 0.3
v -1.2 5.4 0.2
v -1.2 5.4 -1.49012e-007
v -1.2 5.4 -0.1
v -1.2 5.5 0.3
v -1.2 5.5 0.2
v -1.2 5.5 -1.49012e-007
v -1.2 5.5 -0.1
v -1.1 4.7 0.3
v -1.1 4.7 0.2
v -1.1 4.7 -1.49012e-007
v -1.1 4.7 -0.1
v -1.1 4.8 0.3
v -1.1 4.8 0.2
v -1.1 4.8 -1.49012e-007
v -1.1 4.8 -0.1
v -1 5.5 0.2
v -1 5.5 -1.49012e-007
v -1 5.6 0.2
v -1 5.6 -1.49012e-007
v -1.3 4.7 -1.49012e-007
v -1.3 4.7 -0.1
v -1.3 4.9 -1.49012e-007
v -1.3 4.9 -0.1
v -1.1 4.4 0.2
v -1.1 4.4 -1.49012e-007
v -1.1 4.7 0.2
v -1.1 4.7 -1.49012e-007
v -1.1 4.8 0.0999998
v -1.1 4.8 -1.49012e-007
v -1.1 4.9 0.2
v -1.1 4.9 0.0999998
v -1 4.7 0.3
v -1 4.7 0.2
v -1 4.7 -1.49012e-007
v -1 4.7 -0.1
v -1 4.8 0.0999998
v -1 4.8 -1.49012e-007
v -1 4.9 0.2
v -1 4.9 0.0999998
v -1 5.1 0.3
v -1 5.1 -1.49012e-007
v -1 5.1 -0.1
v -0.9 5.1 0.3
v -0.9 5.1 -1.49012e-007
v -0.9 5.1 -0.1
v -0.9 5.2 -1.49012e-007
v -0.9 5.2 -0.1
v -0.9 5.5 0.3
v -0.9 5.5 0.2
v -0.9 5.5 -1.49012e-007
v -0.9 5.5 -0.1
v -0.9 5.6 0.2
v -0.9 5.6 -1.49012e-007
v -1.4 5 0.3
v -1.4 5.1 0.3
v -1.4 5.2 0.3
v -1.4 5.3 0.3
v -1.3 4.8 0.3
v -1.3 5 0.3
v -1.3 5.1 0.3
v -1.3 5.2 0.3
v -1.3 5.3 0.3
v -1.3 5.4 0.3
v -1.2 5 0.3
v -1.2 5.1 0.3
v -1.2 5.2 0.3
v -1.2 5.4 0.3
v -1.2 5.5 0.3
v -1.1 4.7 0.3
v -1.1 4.8 0.3
v -1.1 5 0.3
v -1.1 5.1 0.3
v -1.1 5.2 0.3
v -1.1 5.4 0.3
v -1 4.7 0.3
v -1 5.1 0.3
v -0.9 5.1 0.3
v -0.9 5.5 0.3
v -1.4 5.3 0.2
v -1.4 5.4 0.2
v -1.3 4.4 0.2
v -1.3 4.8 0.2
v -1.3 5.3 0.2
v -1.3 5.4 0.2
v -1.3 5.5 0.2
v -1.2 5.4 0.2
v -1.2 5.5 0.2
v -1.1 4.4 0.2
v -1.1 4.7 0.2
v -1.1 4.8 0.2
v -1 5.5 0.2
v -1 5.6 0.2
v -0.9 5.5 0.2
v -0.9 5.6 0.2
v -1.1 4.8 0.0999998
v -1.1 4.9 0.0999998
v -1 4.8 0.0999998
v -1 4.9 0.0999998
v -1.4 4.7 -1.49012e-007
v -1.4 5 -1.49012e-007
v -1.3 4.7 -1.49012e-007
v -1.3 5 -1.49012e-007
v -1.1 4.7 -1.49012e-007
v -1.1 4.8 -1.49012e-007
v -1 4.7 -1.49012e-007
v -1 4.8 -1.49012e-007
v -1.1 4.7 0.2
v -1.1 4.9 0.2
v -1 4.7 0.2
v -1 4.9 0.2
v -1.4 5.3 -1.49012e-007
v -1.4 5.4 -1.49012e-007
v -1.3 4.4 -1.49012e-007
v -1.3 4.7 -1.49012e-007
v -1.3 4.9 -1.49012e-007
v -1.3 5.3 -1.49012e-007
v -1.3 5.4 -1.49012e-007
v -1.3 5.5 -1.49012e-007
v -1.2 4.8 -1.49012e-007
v -1.2 4.9 -1.49012e-007
v -1.2 5.4 -1.49012e-007
v -1.2 5.5 -1.49012e-007
v -1.1 4.4 -1.49012e-007
v -1.1 4.7 -1.49012e-007
v -1.1 4.8 -1.49012e-007
v -1 5.5 -1.49012e-007
v -1 5.6 -1.49012e-007
v -0.9 5.5 -1.49012e-007
v -0.9 5.6 -1.49012e-007
v -1.4 4.7 -0.1
v -1.4 5.3 -0.1
v -1.3 4.7 -0.1
v -1.3 4.9 -0.1
v -1.3 5.3 -0.1
v -1.3 5.4 -0.1
v -1.2 4.8 -0.1
v -1.2 4.9 -0.1
v -1.2 5.4 -0.1
v -1.2 5.5 -0.1
v -1.1 4.7 -0.1
v -1.1 4.8 -0.1
v -1 4.7 -0.1
v -1 5.1 -0.1
v -1 5.2 -0.1
v -0.9 5.1 -0.1
v -0.9 5.2 -0.1
v -0.9 5.5 -0.1
v -1.3 4.4 0.2
v -1.1 4.4 0.2
v -1.3 4.4 -1.49012e-007
v -1.1 4.4 -1.49012e-007
v -1.1 4.7 0.3
v -1 4.7 0.3
v -1.1 4.7 0.2
v -1 4.7 0.2
v -1.4 4.7 -1.49012e-007
v -1.3 4.7 -1.49012e-007
v -1.1 4.7 -1.49012e-007
v -1 4.7 -1.49012e-007
v -1.4 4.7 -0.1
v -1.3 4.7 -0.1
v -1.1 4.7 -0.1
v -1 4.7 -0.1
v -1.3 4.8 0.3
v -1.1 4.8 0.3
v -1.3 4.8 0.2
v -1.1 4.8 0.2
v -1.1 4.8 0.0999998
v -1 4.8 0.0999998
v -1.2 4.8 -1.49012e-007
v -1.1 4.8 -1.49012e-007
v -1 4.8 -1.49012e-007
v -1.2 4.8 -0.1
v -1.1 4.8 -0.1
v -1.1 4.9 0.2
v -1 4.9 0.2
v -1.1 4.9 0.0999998
v -1 4.9 0.0999998
v -1.3 4.9 -1.49012e-007
v -1.2 4.9 -1.49012e-007
v -1.3 4.9 -0.1
v -1.2 4.9 -0.1
v -1.4 5 0.3
v -1.3 5 0.3
v -1.3 5 0.2
v -1.4 5 -1.49012e-007
v -1.3 5 -1.49012e-007
v -1 5.1 0.3
v -0.9 5.1 0.3
v -1 5.1 -1.49012e-007
v -0.9 5.1 -1.49012e-007
v -1 5.1 -0.1
v -0.9 5.1 -0.1
v -1.4 5.3 0.3
v -1.3 5.3 0.3
v -1.4 5.3 0.2
v -1.3 5.3 0.2
v -1.4 5.3 -1.49012e-007
v -1.3 5.3 -1.49012e-007
v -1.4 5.3 -0.1
v -1.3 5.3 -0.1
v -1.3 5.4 0.3
v -1.2 5.4 0.3
v -1.4 5.4 0.2
v -1.3 5.4 0.2
v -1.2 5.4 0.2
v -1.4 5.4 -1.49012e-007
v -1.3 5.4 -1.49012e-007
v -1.2 5.4 -1.49012e-007
v -1.3 5.4 -0.1
v -1.2 5.4 -0.1
v -1.2 5.5 0.3
v -0.9 5.5 0.3
v -1.3 5.5 0.2
v -1.2 5.5 0.2
v -1 5.5 0.2
v -0.9 5.5 0.2
v -1.3 5.5 -1.49012e-007
v -1.2 5.5 -1.49012e-007
v -1 5.5 -1.49012e-007
v -0.9 5.5 -1.49012e-007
v -1.2 5.5 -0.1
v -0.9 5.5 -0.1
v -1 5.6 0.2
v -0.9 5.6 0.2
v -1 5.6 -1.49012e-007
v -0.9 5.6 -1.49012e-007

# faces
f 4/1/1 2/1/1 1/1/1
f 5/1/1 4/1/1 3/1/1
f 6/1/1 4/1/1 5/1/1
f 7/2/1 6/2/1 5/2/1
f 8/1/1 4/1/1 6/1/1
f 8/2/1 6/2/1 7/2/1
f 9/1/1 8/1/1 7/1/1
f 10/1/1 4/1/1 8/1/1
f 10/1/1 8/1/1 9/1/1
f 11/1/1 2/1/1 4/1/1
f 11/1/1 4/1/1 10/1/1
f 12/1/1 2/1/1 11/1/1
f 13/1/1 11/1/1 10/1/1
f 14/1/1 11/1/1 13/1/1
f 17/3/1 16/3/1 15/3/1
f 19/3/1 17/3/1 15/3/1
f 20/1/1 19/1/1 18/1/1
f 21/3/1 17/3/1 19/3/1
f 21/1/1 19/1/1 20/1/1
f 22/3/1 17/3/1 21/3/1
f 27/1/1 24/1/1 23/1/1
f 28/1/1 24/1/1 27/1/1
f 29/1/1 26/1/1 25/1/1
f 30/1/1 26/1/1 29/1/1
f 31/1/1 29/1/1 28/1/1
f 32/1/1 29/1/1 31/1/1
f 35/1/1 34/1/1 33/1/1
f 36/1/1 34/1/1 35/1/1
f 41/1/1 38/1/1 37/1/1
f 42/1/1 38/1/1 41/1/1
f 43/1/1 40/1/1 39/1/1
f 44/1/1 40/1/1 43/1/1
f 49/1/1 46/1/1 45/1/1
f 50/1/1 46/1/1 49/1/1
f 51/1/1 48/1/1 47/1/1
f 52/1/1 48/1/1 51/1/1
f 55/1/1 54/1/1 53/1/1
f 56/1/1 54/1/1 55/1/1
f 57/1/2 58/1/2 59/1/2
f 59/1/2 58/1/2 60/1/2
f 61/3/2 62/3/2 63/3/2
f 63/3/2 62/3/2 64/3/2
f 63/3/2 64/3/2 65/3/2
f 65/3/2 64/3/2 66/3/2
f 63/3/2 65/3/2 67/3/2
f 67/3/2 65/3/2 68/3/2
f 71/1/2 72/1/2 74/1/2
f 69/1/2 70/1/2 75/1/2
f 73/1/2 74/1/2 76/1/2
f 69/1/2 75/1/2 77/1/2
f 75/1/2 76/1/2 77/1/2
f 76/1/2 74/1/2 78/1/2
f 77/1/2 76/1/2 78/1/2
f 74/1/2 72/1/2 78/1/2
f 78/1/2 72/1/2 79/1/2
f 80/1/2 81/1/2 83/1/2
f 81/2/2 82/2/2 83/2/2
f 83/2/2 82/2/2 84/2/2
f 80/1/2 83/1/2 85/1/2
f 83/1/2 84/1/2 85/1/2
f 85/1/2 84/1/2 86/1/2
f 86/1/2 84/1/2 87/1/2
f 87/1/2 84/1/2 88/1/2
f 86/1/2 87/1/2 89/1/2
f 89/1/2 87/1/2 90/1/2
f 96/1/3 92/1/3 91/1/3
f 97/2/3 93/2/3 92/2/3
f 97/1/3 92/1/3 96/1/3
f 98/1/3 94/1/3 93/1/3
f 98/2/3 93/2/3 97/2/3
f 99/1/3 94/1/3 98/1/3
f 101/1/3 97/1/3 96/1/3
f 101/1/3 100/1/3 99/1/3
f 101/1/3 99/1/3 98/1/3
f 101/1/3 98/1/3 97/1/3
f 101/1/3 96/1/3 95/1/3
f 102/1/3 100/1/3 101/1/3
f 103/1/3 100/1/3 102/1/3
f 104/1/3 100/1/3 103/1/3
f 107/1/3 101/1/3 95/1/3
f 108/2/3 102/2/3 101/2/3
f 108/1/3 101/1/3 107/1/3
f 109/1/3 103/1/3 102/1/3
f 109/2/3 102/2/3 108/2/3
f 110/2/3 104/2/3 103/2/3
f 110/1/3 103/1/3 109/1/3
f 111/1/3 105/1/3 104/1/3
f 111/2/3 104/2/3 110/2/3
f 112/1/3 110/1/3 109/1/3
f 112/1/3 107/1/3 106/1/3
f 112/1/3 111/1/3 110/1/3
f 112/1/3 108/1/3 107/1/3
f 112/1/3 109/1/3 108/1/3
f 113/1/3 111/1/3 112/1/3
f 114/1/3 111/1/3 113/1/3
f 115/1/3 105/1/3 111/1/3
f 115/1/3 111/1/3 114/1/3
f 120/1/3 117/1/3 116/1/3
f 121/1/3 117/1/3 120/1/3
f 123/1/3 122/1/3 121/1/3
f 124/1/3 122/1/3 123/1/3
f 125/3/3 119/3/3 118/3/3
f 126/3/3 119/3/3 125/3/3
f 127/3/3 119/3/3 126/3/3
f 130/1/3 129/1/3 128/1/3
f 131/1/3 129/1/3 130/1/3
f 134/1/3 133/1/3 132/1/3
f 135/1/3 133/1/3 134/1/3
f 138/1/3 137/1/3 136/1/3
f 139/1/3 137/1/3 138/1/3
f 142/1/3 141/1/3 140/1/3
f 143/1/3 141/1/3 142/1/3
f 144/1/4 145/1/4 146/1/4
f 146/1/4 145/1/4 147/1/4
f 148/1/4 149/1/4 153/1/4
f 153/1/4 149/1/4 154/1/4
f 151/3/4 152/3/4 156/3/4
f 150/3/4 151/3/4 156/3/4
f 156/3/4 152/3/4 157/3/4
f 154/1/4 155/1/4 158/1/4
f 158/1/4 155/1/4 159/1/4
f 150/3/4 156/3/4 160/3/4
f 160/3/4 156/3/4 161/3/4
f 161/3/4 156/3/4 162/3/4
f 163/1/4 164/1/4 165/1/4
f 165/1/4 164/1/4 166/1/4
f 167/1/4 168/1/4 169/1/4
f 169/1/4 168/1/4 170/1/4
f 170/1/4 168/1/4 171/1/4
f 171/1/4 172/1/4 174/1/4
f 170/1/4 171/1/4 174/1/4
f 174/1/4 172/1/4 175/1/4
f 173/1/4 174/1/4 178/1/4
f 175/1/4 176/1/4 178/1/4
f 174/1/4 175/1/4 178/1/4
f 177/1/4 178/1/4 179/1/4
f 178/1/4 176/1/4 180/1/4
f 179/1/4 178/1/4 180/1/4
f 180/1/4 176/1/4 181/1/4
f 180/2/4 181/2/4 182/2/4
f 181/1/4 176/1/4 183/1/4
f 182/2/4 181/2/4 183/2/4
f 183/1/4 176/1/4 184/1/4
f 187/3/5 186/3/5 185/3/5
f 188/3/5 186/3/5 187/3/5
f 191/1/5 190/1/5 189/1/5
f 192/1/5 190/1/5 191/1/5
f 197/1/5 194/1/5 193/1/5
f 198/1/5 194/1/5 197/1/5
f 199/1/5 196/1/5 195/1/5
f 200/1/5 196/1/5 199/1/5
f 203/1/5 202/1/5 201/1/5
f 204/1/5 202/1/5 203/1/5
f 208/1/5 206/1/5 205/1/5
f 209/1/5 206/1/5 208/1/5
f 210/1/5 208/1/5 207/1/5
f 211/1/5 208/1/5 210/1/5
f 214/1/5 213/1/5 212/1/5
f 215/1/5 213/1/5 214/1/5
f 218/1/5 217/1/5 216/1/5
f 219/1/5 217/1/5 218/1/5
f 222/1/5 221/1/5 220/1/5
f 223/1/5 222/1/5 220/1/5
f 224/1/5 222/1/5 223/1/5
f 227/1/5 226/1/5 225/1/5
f 228/1/5 226/1/5 227/1/5
f 229/2/5 228/2/5 227/2/5
f 230/2/5 228/2/5 229/2/5
f 231/1/6 232/1/6 233/1/6
f 233/1/6 232/1/6 234/1/6
f 235/1/6 236/1/6 237/1/6
f 237/1/6 236/1/6 238/1/6
f 239/1/6 240/1/6 242/1/6
f 242/1/6 240/1/6 243/1/6
f 241/1/6 242/1/6 244/1/6
f 244/1/6 242/1/6 245/1/6
f 245/1/6 246/1/6 247/1/6
f 247/1/6 246/1/6 248/1/6
f 249/1/6 250/1/6 252/1/6
f 252/1/6 250/1/6 253/1/6
f 253/1/6 250/1/6 254/1/6
f 251/1/6 252/1/6 255/1/6
f 252/1/6 253/1/6 255/1/6
f 255/1/6 253/1/6 256/1/6
f 256/1/6 253/1/6 257/1/6
f 257/1/6 258/1/6 259/1/6
f 256/1/6 257/1/6 259/1/6
f 259/1/6 258/1/6 260/1/6
f 261/1/6 262/1/6 263/1/6
f 263/1/6 262/1/6 264/1/6
