# MagicaVoxel @ Ephtracy

# group
o 

# material
mtllib Hero-1.mtl
usemtl palette

# normals
vn -1 0 0
vn 1 0 0
vn 0 0 1
vn 0 0 -1
vn 0 -1 0
vn 0 1 0

# texcoords
vt 0.814453 0.5
vt 0.896484 0.5
vt 0.900391 0.5

# verts
v -1.3 5 0.7
v -1.3 5 0.2
v -1.3 5.3 0.7
v -1.3 5.3 0.2
v -1.2 4.3 0.7
v -1.2 4.3 0.2
v -1.2 4.5 0.3
v -1.2 4.5 0.2
v -1.2 4.6 0.3
v -1.2 4.6 0.2
v -1.2 5 0.8
v -1.2 5 0.7
v -1.2 5 0.2
v -1.2 5 0.1
v -1.2 5.3 0.8
v -1.2 5.3 0.7
v -1.2 5.3 0.2
v -1.2 5.3 0.1
v -1.1 4.3 0.8
v -1.1 4.3 0.7
v -1.1 4.3 0.2
v -1.1 4.3 0.1
v -1.1 4.4 0.8
v -1.1 4.4 0.7
v -1.1 4.5 0.8
v -1.1 4.5 0.7
v -1.1 4.5 0.2
v -1.1 4.6 0.2
v -1.1 5 0.9
v -1.1 5 0.8
v -1.1 5 0.7
v -1.1 5 0.2
v -1.1 5 0.1
v -1.1 5 0
v -1.1 5.3 0.9
v -1.1 5.3 0.8
v -1.1 5.3 0.1
v -1.1 5.3 0
v -1 4.3 0.9
v -1 4.3 0.8
v -1 4.3 0.1
v -1 4.3 0
v -1 4.4 0.9
v -1 4.4 0.8
v -1 4.5 0.9
v -1 4.5 0.8
v -1 5 1
v -1 5 0.9
v -1 5 0.8
v -1 5 0.1
v -1 5 0
v -1 5 -0.1
v -1 5.3 1
v -1 5.3 0.9
v -1 5.3 0
v -1 5.3 -0.1
v -0.9 4.3 0
v -0.9 4.3 -0.1
v -0.9 4.5 0
v -0.9 4.5 -0.1
v -0.9 4.6 0
v -0.9 4.6 -0.1
v -0.9 5 0
v -0.9 5 -0.1
v -0.9 5 -0.2
v -0.9 5.3 -0.1
v -0.9 5.3 -0.2
v -0.8 5 1.1
v -0.8 5 1
v -0.8 5.3 1.1
v -0.8 5.3 1
v -0.7 4.8 1
v -0.7 4.8 0.9
v -0.7 5 1
v -0.7 5 0.9
v -0.6 4.7 1
v -0.6 4.7 0.9
v -0.6 4.8 1
v -0.6 4.8 0.9
v -0.5 4.6 1
v -0.5 4.6 0.9
v -0.5 4.7 1
v -0.5 4.7 0.9
v -0.4 4.4 0.9
v -0.4 4.4 0.8
v -0.4 4.5 1
v -0.4 4.5 0.9
v -0.4 4.5 0.8
v -0.4 4.6 1
v -0.4 4.6 0.9
v -0.3 4.3 0.9
v -0.3 4.3 0.8
v -0.3 4.4 1
v -0.3 4.4 0.9
v -0.3 4.4 0.8
v -0.3 4.5 1
v -0.3 4.5 0.9
v 0.1 4.3 0.1
v 0.1 4.3 0
v 0.1 4.4 0.1
v 0.1 4.4 0
v 0.1 4.4 -0.1
v 0.1 4.5 0
v 0.1 4.5 -0.1
v 0.3 4.3 0
v 0.3 4.3 -0.1
v 0.3 4.4 0
v 0.3 4.4 -0.1
v 0.5 4.3 0.9
v 0.5 4.3 0.8
v 0.5 4.5 0.9
v 0.5 4.5 0.8
v -0.5 4.3 0.9
v -0.5 4.3 0.8
v -0.5 4.5 0.9
v -0.5 4.5 0.8
v -0.3 4.3 0
v -0.3 4.3 -0.1
v -0.3 4.4 0
v -0.3 4.4 -0.1
v -0.0999998 4.3 0.1
v -0.0999998 4.3 0
v -0.0999998 4.4 0.1
v -0.0999998 4.4 0
v -0.0999998 4.4 -0.1
v -0.0999998 4.5 0
v -0.0999998 4.5 -0.1
v 0.3 4.3 0.9
v 0.3 4.3 0.8
v 0.3 4.4 1
v 0.3 4.4 0.9
v 0.3 4.4 0.8
v 0.3 4.5 1
v 0.3 4.5 0.9
v 0.4 4.4 0.9
v 0.4 4.4 0.8
v 0.4 4.5 1
v 0.4 4.5 0.9
v 0.4 4.5 0.8
v 0.4 4.6 1
v 0.4 4.6 0.9
v 0.5 4.6 1
v 0.5 4.6 0.9
v 0.5 4.7 1
v 0.5 4.7 0.9
v 0.6 4.7 1
v 0.6 4.7 0.9
v 0.6 4.8 1
v 0.6 4.8 0.9
v 0.7 4.8 1
v 0.7 4.8 0.9
v 0.7 5 1
v 0.7 5 0.9
v 0.8 5 1.1
v 0.8 5 1
v 0.8 5.3 1.1
v 0.8 5.3 1
v 0.9 4.3 0
v 0.9 4.3 -0.1
v 0.9 4.5 0
v 0.9 4.5 -0.1
v 0.9 4.6 0
v 0.9 4.6 -0.1
v 0.9 5 0
v 0.9 5 -0.1
v 0.9 5 -0.2
v 0.9 5.3 -0.1
v 0.9 5.3 -0.2
v 1 4.3 0.9
v 1 4.3 0.8
v 1 4.3 0.1
v 1 4.3 0
v 1 4.4 0.9
v 1 4.4 0.8
v 1 4.5 0.9
v 1 4.5 0.8
v 1 5 1
v 1 5 0.9
v 1 5 0.8
v 1 5 0.1
v 1 5 0
v 1 5 -0.1
v 1 5.3 1
v 1 5.3 0.9
v 1 5.3 0
v 1 5.3 -0.1
v 1.1 4.3 0.8
v 1.1 4.3 0.7
v 1.1 4.3 0.2
v 1.1 4.3 0.1
v 1.1 4.4 0.8
v 1.1 4.4 0.7
v 1.1 4.5 0.8
v 1.1 4.5 0.7
v 1.1 4.5 0.2
v 1.1 4.6 0.2
v 1.1 5 0.9
v 1.1 5 0.8
v 1.1 5 0.7
v 1.1 5 0.2
v 1.1 5 0.1
v 1.1 5 0
v 1.1 5.3 0.9
v 1.1 5.3 0.8
v 1.1 5.3 0.1
v 1.1 5.3 0
v 1.2 4.3 0.7
v 1.2 4.3 0.2
v 1.2 4.5 0.3
v 1.2 4.5 0.2
v 1.2 4.6 0.3
v 1.2 4.6 0.2
v 1.2 5 0.8
v 1.2 5 0.7
v 1.2 5 0.2
v 1.2 5 0.1
v 1.2 5.3 0.8
v 1.2 5.3 0.7
v 1.2 5.3 0.2
v 1.2 5.3 0.1
v 1.3 5 0.7
v 1.3 5 0.2
v 1.3 5.3 0.7
v 1.3 5.3 0.2
v -0.8 5 1.1
v -0.8 5.3 1.1
v 0.8 5 1.1
v 0.8 5.3 1.1
v -1 5 1
v -1 5.3 1
v -0.8 5 1
v -0.8 5.3 1
v -0.7 4.8 1
v -0.7 5 1
v -0.6 4.7 1
v -0.6 4.8 1
v -0.5 4.6 1
v -0.5 4.7 1
v -0.5 4.9 1
v -0.5 5 1
v -0.4 4.5 1
v -0.4 4.6 1
v -0.4 4.9 1
v -0.4 5 1
v -0.3 4.4 1
v -0.3 4.5 1
v -0.0999998 4.6 1
v -0.0999998 4.7 1
v 0.1 4.6 1
v 0.1 4.7 1
v 0.3 4.4 1
v 0.3 4.5 1
v 0.4 4.5 1
v 0.4 4.6 1
v 0.4 4.9 1
v 0.4 5 1
v 0.5 4.6 1
v 0.5 4.7 1
v 0.5 4.9 1
v 0.5 5 1
v 0.6 4.7 1
v 0.6 4.8 1
v 0.7 4.8 1
v 0.7 5 1
v 0.8 5 1
v 0.8 5.3 1
v 1 5 1
v 1 5.3 1
v -1.1 5 0.9
v -1.1 5.3 0.9
v -1 4.3 0.9
v -1 4.4 0.9
v -1 4.5 0.9
v -1 5 0.9
v -1 5.3 0.9
v -0.9 4.4 0.9
v -0.9 4.5 0.9
v -0.9 4.7 0.9
v -0.8 4.5 0.9
v -0.8 4.6 0.9
v -0.7 4.6 0.9
v -0.7 4.7 0.9
v -0.7 4.8 0.9
v -0.7 5 0.9
v -0.6 4.7 0.9
v -0.6 4.8 0.9
v -0.5 4.3 0.9
v -0.5 4.5 0.9
v -0.5 4.6 0.9
v -0.5 4.7 0.9
v -0.4 4.4 0.9
v -0.4 4.5 0.9
v -0.4 4.6 0.9
v -0.3 4.3 0.9
v -0.3 4.4 0.9
v -0.3 4.5 0.9
v 0.3 4.3 0.9
v 0.3 4.4 0.9
v 0.3 4.5 0.9
v 0.4 4.4 0.9
v 0.4 4.5 0.9
v 0.4 4.6 0.9
v 0.5 4.3 0.9
v 0.5 4.5 0.9
v 0.5 4.6 0.9
v 0.5 4.7 0.9
v 0.6 4.7 0.9
v 0.6 4.8 0.9
v 0.7 4.6 0.9
v 0.7 4.7 0.9
v 0.7 4.8 0.9
v 0.7 5 0.9
v 0.8 4.5 0.9
v 0.8 4.6 0.9
v 0.9 4.4 0.9
v 0.9 4.5 0.9
v 0.9 4.7 0.9
v 1 4.3 0.9
v 1 4.4 0.9
v 1 4.5 0.9
v 1 5 0.9
v 1 5.3 0.9
v 1.1 5 0.9
v 1.1 5.3 0.9
v -1.2 5 0.8
v -1.2 5.3 0.8
v -1.1 4.3 0.8
v -1.1 4.4 0.8
v -1.1 4.5 0.8
v -1.1 5 0.8
v -1.1 5.3 0.8
v -1 4.3 0.8
v -1 4.4 0.8
v -1 4.5 0.8
v -1 5 0.8
v -0.5 4.3 0.8
v -0.5 4.5 0.8
v -0.4 4.4 0.8
v -0.4 4.5 0.8
v -0.3 4.3 0.8
v -0.3 4.4 0.8
v 0.3 4.3 0.8
v 0.3 4.4 0.8
v 0.4 4.4 0.8
v 0.4 4.5 0.8
v 0.5 4.3 0.8
v 0.5 4.5 0.8
v 1 4.3 0.8
v 1 4.4 0.8
v 1 4.5 0.8
v 1 5 0.8
v 1.1 4.3 0.8
v 1.1 4.4 0.8
v 1.1 4.5 0.8
v 1.1 5 0.8
v 1.1 5.3 0.8
v 1.2 5 0.8
v 1.2 5.3 0.8
v -1.3 5 0.7
v -1.3 5.3 0.7
v -1.2 4.3 0.7
v -1.2 5 0.7
v -1.2 5.3 0.7
v -1.1 4.3 0.7
v -1.1 4.4 0.7
v -1.1 4.5 0.7
v -1.1 5 0.7
v 1.1 4.3 0.7
v 1.1 4.4 0.7
v 1.1 4.5 0.7
v 1.1 5 0.7
v 1.2 4.3 0.7
v 1.2 5 0.7
v 1.2 5.3 0.7
v 1.3 5 0.7
v 1.3 5.3 0.7
v -1.3 5 0.2
v -1.3 5.3 0.2
v -1.2 4.3 0.2
v -1.2 4.5 0.2
v -1.2 4.6 0.2
v -1.2 5 0.2
v -1.2 5.3 0.2
v -1.1 4.3 0.2
v -1.1 4.5 0.2
v -1.1 4.6 0.2
v -1.1 5 0.2
v 1.1 4.3 0.2
v 1.1 4.5 0.2
v 1.1 4.6 0.2
v 1.1 5 0.2
v 1.2 4.3 0.2
v 1.2 4.5 0.2
v 1.2 4.6 0.2
v 1.2 5 0.2
v 1.2 5.3 0.2
v 1.3 5 0.2
v 1.3 5.3 0.2
v -1.2 5 0.1
v -1.2 5.3 0.1
v -1.1 4.3 0.1
v -1.1 5 0.1
v -1.1 5.3 0.1
v -1 4.3 0.1
v -1 5 0.1
v -0.0999998 4.3 0.1
v -0.0999998 4.4 0.1
v 0.1 4.3 0.1
v 0.1 4.4 0.1
v 1 4.3 0.1
v 1 5 0.1
v 1.1 4.3 0.1
v 1.1 5 0.1
v 1.1 5.3 0.1
v 1.2 5 0.1
v 1.2 5.3 0.1
v -1.1 5 0
v -1.1 5.3 0
v -1 4.3 0
v -1 5 0
v -1 5.3 0
v -0.9 4.3 0
v -0.9 4.5 0
v -0.9 4.6 0
v -0.9 5 0
v -0.3 4.3 0
v -0.3 4.4 0
v -0.0999998 4.3 0
v -0.0999998 4.4 0
v -0.0999998 4.5 0
v 0.1 4.3 0
v 0.1 4.4 0
v 0.1 4.5 0
v 0.3 4.3 0
v 0.3 4.4 0
v 0.9 4.3 0
v 0.9 4.5 0
v 0.9 4.6 0
v 0.9 5 0
v 1 4.3 0
v 1 5 0
v 1 5.3 0
v 1.1 5 0
v 1.1 5.3 0
v -1 5 -0.1
v -1 5.3 -0.1
v -0.9 4.3 -0.1
v -0.9 4.5 -0.1
v -0.9 4.6 -0.1
v -0.9 5 -0.1
v -0.9 5.3 -0.1
v -0.8 4.4 -0.1
v -0.8 4.5 -0.1
v -0.8 4.6 -0.1
v -0.7 4.4 -0.1
v -0.7 4.5 -0.1
v -0.6 4.8 -0.1
v -0.6 4.9 -0.1
v -0.5 4.7 -0.1
v -0.5 4.8 -0.1
v -0.5 4.9 -0.1
v -0.4 4.5 -0.1
v -0.4 4.6 -0.1
v -0.4 4.7 -0.1
v -0.4 4.8 -0.1
v -0.3 4.3 -0.1
v -0.3 4.4 -0.1
v -0.3 4.5 -0.1
v -0.3 4.6 -0.1
v -0.3 4.7 -0.1
v -0.2 4.6 -0.1
v -0.2 4.7 -0.1
v -0.0999998 4.4 -0.1
v -0.0999998 4.5 -0.1
v 0.1 4.4 -0.1
v 0.1 4.5 -0.1
v 0.2 4.6 -0.1
v 0.2 4.7 -0.1
v 0.3 4.3 -0.1
v 0.3 4.4 -0.1
v 0.3 4.5 -0.1
v 0.3 4.6 -0.1
v 0.3 4.7 -0.1
v 0.4 4.5 -0.1
v 0.4 4.6 -0.1
v 0.4 4.7 -0.1
v 0.4 4.8 -0.1
v 0.5 4.7 -0.1
v 0.5 4.8 -0.1
v 0.5 4.9 -0.1
v 0.6 4.8 -0.1
v 0.6 4.9 -0.1
v 0.7 4.4 -0.1
v 0.7 4.5 -0.1
v 0.8 4.4 -0.1
v 0.8 4.5 -0.1
v 0.8 4.6 -0.1
v 0.9 4.3 -0.1
v 0.9 4.5 -0.1
v 0.9 4.6 -0.1
v 0.9 5 -0.1
v 0.9 5.3 -0.1
v 1 5 -0.1
v 1 5.3 -0.1
v -0.9 5 -0.2
v -0.9 5.3 -0.2
v 0.9 5 -0.2
v 0.9 5.3 -0.2
v -1 4.3 0.9
v -0.5 4.3 0.9
v -0.3 4.3 0.9
v 0.3 4.3 0.9
v 0.5 4.3 0.9
v 1 4.3 0.9
v -1.1 4.3 0.8
v -1 4.3 0.8
v -0.5 4.3 0.8
v -0.3 4.3 0.8
v 0.3 4.3 0.8
v 0.5 4.3 0.8
v 1 4.3 0.8
v 1.1 4.3 0.8
v -1.2 4.3 0.7
v -1.1 4.3 0.7
v 1.1 4.3 0.7
v 1.2 4.3 0.7
v -1.2 4.3 0.2
v -1.1 4.3 0.2
v 1.1 4.3 0.2
v 1.2 4.3 0.2
v -1.1 4.3 0.1
v -1 4.3 0.1
v -0.0999998 4.3 0.1
v 0.1 4.3 0.1
v 1 4.3 0.1
v 1.1 4.3 0.1
v -1 4.3 0
v -0.9 4.3 0
v -0.3 4.3 0
v -0.0999998 4.3 0
v 0.1 4.3 0
v 0.3 4.3 0
v 0.9 4.3 0
v 1 4.3 0
v -0.9 4.3 -0.1
v -0.3 4.3 -0.1
v 0.3 4.3 -0.1
v 0.9 4.3 -0.1
v -0.3 4.4 1
v 0.3 4.4 1
v -0.4 4.4 0.9
v -0.3 4.4 0.9
v 0.3 4.4 0.9
v 0.4 4.4 0.9
v -0.4 4.4 0.8
v -0.3 4.4 0.8
v 0.3 4.4 0.8
v 0.4 4.4 0.8
v -0.0999998 4.4 0.1
v 0.1 4.4 0.1
v -0.3 4.4 0
v -0.0999998 4.4 0
v 0.1 4.4 0
v 0.3 4.4 0
v -0.3 4.4 -0.1
v -0.0999998 4.4 -0.1
v 0.1 4.4 -0.1
v 0.3 4.4 -0.1
v -0.4 4.5 1
v -0.3 4.5 1
v 0.3 4.5 1
v 0.4 4.5 1
v -0.5 4.5 0.9
v -0.4 4.5 0.9
v -0.3 4.5 0.9
v 0.3 4.5 0.9
v 0.4 4.5 0.9
v 0.5 4.5 0.9
v -0.5 4.5 0.8
v -0.4 4.5 0.8
v 0.4 4.5 0.8
v 0.5 4.5 0.8
v -0.0999998 4.5 0
v 0.1 4.5 0
v -0.0999998 4.5 -0.1
v 0.1 4.5 -0.1
v -0.5 4.6 1
v -0.4 4.6 1
v 0.4 4.6 1
v 0.5 4.6 1
v -0.5 4.6 0.9
v -0.4 4.6 0.9
v 0.4 4.6 0.9
v 0.5 4.6 0.9
v -0.6 4.7 1
v -0.5 4.7 1
v 0.5 4.7 1
v 0.6 4.7 1
v -0.6 4.7 0.9
v -0.5 4.7 0.9
v 0.5 4.7 0.9
v 0.6 4.7 0.9
v -0.7 4.8 1
v -0.6 4.8 1
v 0.6 4.8 1
v 0.7 4.8 1
v -0.7 4.8 0.9
v -0.6 4.8 0.9
v 0.6 4.8 0.9
v 0.7 4.8 0.9
v -0.8 5 1.1
v 0.8 5 1.1
v -1 5 1
v -0.8 5 1
v -0.7 5 1
v -0.5 5 1
v -0.4 5 1
v 0.4 5 1
v 0.5 5 1
v 0.7 5 1
v 0.8 5 1
v 1 5 1
v -1.1 5 0.9
v -1 5 0.9
v -0.7 5 0.9
v 0.7 5 0.9
v 1 5 0.9
v 1.1 5 0.9
v -1.2 5 0.8
v -1.1 5 0.8
v -1 5 0.8
v 1 5 0.8
v 1.1 5 0.8
v 1.2 5 0.8
v -1.3 5 0.7
v -1.2 5 0.7
v -1.1 5 0.7
v 1.1 5 0.7
v 1.2 5 0.7
v 1.3 5 0.7
v -1.3 5 0.2
v -1.2 5 0.2
v -1.1 5 0.2
v 1.1 5 0.2
v 1.2 5 0.2
v 1.3 5 0.2
v -1.2 5 0.1
v -1.1 5 0.1
v -1 5 0.1
v 1 5 0.1
v 1.1 5 0.1
v 1.2 5 0.1
v -1.1 5 0
v -1 5 0
v -0.9 5 0
v 0.9 5 0
v 1 5 0
v 1.1 5 0
v -1 5 -0.1
v -0.9 5 -0.1
v 0.9 5 -0.1
v 1 5 -0.1
v -0.9 5 -0.2
v 0.9 5 -0.2
v -0.8 5.3 1.1
v 0.8 5.3 1.1
v -1 5.3 1
v -0.8 5.3 1
v 0.8 5.3 1
v 1 5.3 1
v -1.1 5.3 0.9
v -1 5.3 0.9
v 1 5.3 0.9
v 1.1 5.3 0.9
v -1.2 5.3 0.8
v -1.1 5.3 0.8
v 1.1 5.3 0.8
v 1.2 5.3 0.8
v -1.3 5.3 0.7
v -1.2 5.3 0.7
v 1.2 5.3 0.7
v 1.3 5.3 0.7
v -1.3 5.3 0.2
v -1.2 5.3 0.2
v 1.2 5.3 0.2
v 1.3 5.3 0.2
v -1.2 5.3 0.1
v -1.1 5.3 0.1
v 1.1 5.3 0.1
v 1.2 5.3 0.1
v -1.1 5.3 0
v -1 5.3 0
v 1 5.3 0
v 1.1 5.3 0
v -1 5.3 -0.1
v -0.9 5.3 -0.1
v 0.9 5.3 -0.1
v 1 5.3 -0.1
v -0.9 5.3 -0.2
v 0.9 5.3 -0.2

# faces
f 3/1/1 2/1/1 1/1/1
f 4/1/1 2/1/1 3/1/1
f 7/2/1 6/2/1 5/2/1
f 8/2/1 6/2/1 7/2/1
f 9/2/1 7/2/1 5/2/1
f 9/3/1 8/3/1 7/3/1
f 10/3/1 8/3/1 9/3/1
f 12/2/1 9/2/1 5/2/1
f 12/2/1 10/2/1 9/2/1
f 13/2/1 10/2/1 12/2/1
f 15/1/1 12/1/1 11/1/1
f 16/1/1 12/1/1 15/1/1
f 17/1/1 14/1/1 13/1/1
f 18/1/1 14/1/1 17/1/1
f 23/2/1 20/2/1 19/2/1
f 24/2/1 20/2/1 23/2/1
f 25/3/1 24/3/1 23/3/1
f 26/3/1 24/3/1 25/3/1
f 27/2/1 22/2/1 21/2/1
f 28/2/1 22/2/1 27/2/1
f 30/2/1 26/2/1 25/2/1
f 31/2/1 26/2/1 30/2/1
f 32/2/1 22/2/1 28/2/1
f 33/2/1 22/2/1 32/2/1
f 35/1/1 30/1/1 29/1/1
f 36/1/1 30/1/1 35/1/1
f 37/1/1 34/1/1 33/1/1
f 38/1/1 34/1/1 37/1/1
f 43/2/1 40/2/1 39/2/1
f 44/2/1 40/2/1 43/2/1
f 45/3/1 44/3/1 43/3/1
f 46/3/1 44/3/1 45/3/1
f 48/2/1 46/2/1 45/2/1
f 49/2/1 46/2/1 48/2/1
f 50/2/1 42/2/1 41/2/1
f 51/2/1 42/2/1 50/2/1
f 53/1/1 48/1/1 47/1/1
f 54/1/1 48/1/1 53/1/1
f 55/1/1 52/1/1 51/1/1
f 56/1/1 52/1/1 55/1/1
f 59/2/1 58/2/1 57/2/1
f 60/2/1 58/2/1 59/2/1
f 61/3/1 60/3/1 59/3/1
f 62/3/1 60/3/1 61/3/1
f 63/2/1 62/2/1 61/2/1
f 64/2/1 62/2/1 63/2/1
f 66/1/1 65/1/1 64/1/1
f 67/1/1 65/1/1 66/1/1
f 70/1/1 69/1/1 68/1/1
f 71/1/1 69/1/1 70/1/1
f 74/2/1 73/2/1 72/2/1
f 75/2/1 73/2/1 74/2/1
f 78/2/1 77/2/1 76/2/1
f 79/2/1 77/2/1 78/2/1
f 82/2/1 81/2/1 80/2/1
f 83/2/1 81/2/1 82/2/1
f 87/2/1 85/2/1 84/2/1
f 88/2/1 85/2/1 87/2/1
f 89/2/1 87/2/1 86/2/1
f 90/2/1 87/2/1 89/2/1
f 94/2/1 92/2/1 91/2/1
f 95/2/1 92/2/1 94/2/1
f 96/2/1 94/2/1 93/2/1
f 97/2/1 94/2/1 96/2/1
f 100/2/1 99/2/1 98/2/1
f 101/2/1 99/2/1 100/2/1
f 103/2/1 102/2/1 101/2/1
f 104/2/1 102/2/1 103/2/1
f 107/2/1 106/2/1 105/2/1
f 108/2/1 106/2/1 107/2/1
f 111/2/1 110/2/1 109/2/1
f 112/2/1 110/2/1 111/2/1
f 113/2/2 114/2/2 115/2/2
f 115/2/2 114/2/2 116/2/2
f 117/2/2 118/2/2 119/2/2
f 119/2/2 118/2/2 120/2/2
f 121/2/2 122/2/2 123/2/2
f 123/2/2 122/2/2 124/2/2
f 124/2/2 125/2/2 126/2/2
f 126/2/2 125/2/2 127/2/2
f 128/2/2 129/2/2 131/2/2
f 131/2/2 129/2/2 132/2/2
f 130/2/2 131/2/2 133/2/2
f 133/2/2 131/2/2 134/2/2
f 135/2/2 136/2/2 138/2/2
f 138/2/2 136/2/2 139/2/2
f 137/2/2 138/2/2 140/2/2
f 140/2/2 138/2/2 141/2/2
f 142/2/2 143/2/2 144/2/2
f 144/2/2 143/2/2 145/2/2
f 146/2/2 147/2/2 148/2/2
f 148/2/2 147/2/2 149/2/2
f 150/2/2 151/2/2 152/2/2
f 152/2/2 151/2/2 153/2/2
f 154/1/2 155/1/2 156/1/2
f 156/1/2 155/1/2 157/1/2
f 158/2/2 159/2/2 160/2/2
f 160/2/2 159/2/2 161/2/2
f 160/3/2 161/3/2 162/3/2
f 162/3/2 161/3/2 163/3/2
f 162/2/2 163/2/2 164/2/2
f 164/2/2 163/2/2 165/2/2
f 165/1/2 166/1/2 167/1/2
f 167/1/2 166/1/2 168/1/2
f 169/2/2 170/2/2 173/2/2
f 173/2/2 170/2/2 174/2/2
f 173/3/2 174/3/2 175/3/2
f 175/3/2 174/3/2 176/3/2
f 175/2/2 176/2/2 178/2/2
f 178/2/2 176/2/2 179/2/2
f 171/2/2 172/2/2 180/2/2
f 180/2/2 172/2/2 181/2/2
f 177/1/2 178/1/2 183/1/2
f 183/1/2 178/1/2 184/1/2
f 181/1/2 182/1/2 185/1/2
f 185/1/2 182/1/2 186/1/2
f 187/2/2 188/2/2 191/2/2
f 191/2/2 188/2/2 192/2/2
f 191/3/2 192/3/2 193/3/2
f 193/3/2 192/3/2 194/3/2
f 189/2/2 190/2/2 195/2/2
f 195/2/2 190/2/2 196/2/2
f 193/2/2 194/2/2 198/2/2
f 198/2/2 194/2/2 199/2/2
f 196/2/2 190/2/2 200/2/2
f 200/2/2 190/2/2 201/2/2
f 197/1/2 198/1/2 203/1/2
f 203/1/2 198/1/2 204/1/2
f 201/1/2 202/1/2 205/1/2
f 205/1/2 202/1/2 206/1/2
f 207/2/2 208/2/2 209/2/2
f 209/2/2 208/2/2 210/2/2
f 207/2/2 209/2/2 211/2/2
f 209/3/2 210/3/2 211/3/2
f 211/3/2 210/3/2 212/3/2
f 207/2/2 211/2/2 214/2/2
f 211/2/2 212/2/2 214/2/2
f 214/2/2 212/2/2 215/2/2
f 213/1/2 214/1/2 217/1/2
f 217/1/2 214/1/2 218/1/2
f 215/1/2 216/1/2 219/1/2
f 219/1/2 216/1/2 220/1/2
f 221/1/2 222/1/2 223/1/2
f 223/1/2 222/1/2 224/1/2
f 227/1/3 226/1/3 225/1/3
f 228/1/3 226/1/3 227/1/3
f 231/1/3 230/1/3 229/1/3
f 232/1/3 230/1/3 231/1/3
f 236/2/3 234/2/3 233/2/3
f 238/2/3 236/2/3 235/2/3
f 239/2/3 234/2/3 236/2/3
f 239/2/3 236/2/3 238/2/3
f 240/2/3 234/2/3 239/2/3
f 242/2/3 238/2/3 237/2/3
f 242/2/3 239/2/3 238/2/3
f 243/3/3 240/3/3 239/3/3
f 243/2/3 239/2/3 242/2/3
f 244/3/3 240/3/3 243/3/3
f 246/2/3 242/2/3 241/2/3
f 246/2/3 243/2/3 242/2/3
f 246/2/3 244/2/3 243/2/3
f 247/2/3 244/2/3 246/2/3
f 247/2/3 246/2/3 245/2/3
f 248/2/3 244/2/3 247/2/3
f 249/2/3 247/2/3 245/2/3
f 249/3/3 248/3/3 247/3/3
f 250/2/3 244/2/3 248/2/3
f 250/3/3 248/3/3 249/3/3
f 251/2/3 249/2/3 245/2/3
f 251/2/3 250/2/3 249/2/3
f 252/2/3 250/2/3 251/2/3
f 253/2/3 250/2/3 252/2/3
f 254/2/3 250/2/3 253/2/3
f 255/2/3 244/2/3 250/2/3
f 255/2/3 250/2/3 254/2/3
f 256/2/3 244/2/3 255/2/3
f 257/2/3 255/2/3 254/2/3
f 258/2/3 255/2/3 257/2/3
f 259/3/3 256/3/3 255/3/3
f 259/2/3 255/2/3 258/2/3
f 260/3/3 256/3/3 259/3/3
f 261/2/3 259/2/3 258/2/3
f 261/2/3 260/2/3 259/2/3
f 262/2/3 260/2/3 261/2/3
f 263/2/3 260/2/3 262/2/3
f 264/2/3 260/2/3 263/2/3
f 267/1/3 266/1/3 265/1/3
f 268/1/3 266/1/3 267/1/3
f 274/1/3 270/1/3 269/1/3
f 275/1/3 270/1/3 274/1/3
f 276/3/3 273/3/3 272/3/3
f 276/2/3 272/2/3 271/2/3
f 277/2/3 274/2/3 273/2/3
f 277/3/3 273/3/3 276/3/3
f 278/2/3 274/2/3 277/2/3
f 279/2/3 277/2/3 276/2/3
f 279/3/3 278/3/3 277/3/3
f 280/3/3 278/3/3 279/3/3
f 281/2/3 280/2/3 279/2/3
f 281/3/3 278/3/3 280/3/3
f 282/2/3 274/2/3 278/2/3
f 282/3/3 278/3/3 281/3/3
f 283/2/3 274/2/3 282/2/3
f 284/2/3 274/2/3 283/2/3
f 285/2/3 282/2/3 281/2/3
f 285/2/3 283/2/3 282/2/3
f 286/2/3 283/2/3 285/2/3
f 287/2/3 276/2/3 271/2/3
f 287/2/3 281/2/3 279/2/3
f 287/2/3 285/2/3 281/2/3
f 287/2/3 279/2/3 276/2/3
f 288/2/3 285/2/3 287/2/3
f 289/2/3 285/2/3 288/2/3
f 290/2/3 285/2/3 289/2/3
f 292/2/3 289/2/3 288/2/3
f 293/2/3 289/2/3 292/2/3
f 295/2/3 292/2/3 291/2/3
f 296/2/3 292/2/3 295/2/3
f 297/2/3 295/2/3 294/2/3
f 298/2/3 295/2/3 297/2/3
f 300/2/3 299/2/3 298/2/3
f 301/2/3 299/2/3 300/2/3
f 304/2/3 302/2/3 301/2/3
f 305/2/3 302/2/3 304/2/3
f 307/2/3 305/2/3 304/2/3
f 307/2/3 306/2/3 305/2/3
f 307/2/3 304/2/3 303/2/3
f 309/2/3 307/2/3 303/2/3
f 309/2/3 308/2/3 307/2/3
f 310/2/3 308/2/3 309/2/3
f 311/2/3 308/2/3 310/2/3
f 313/2/3 309/2/3 303/2/3
f 314/3/3 310/3/3 309/3/3
f 314/2/3 309/2/3 313/2/3
f 315/2/3 313/2/3 303/2/3
f 316/3/3 314/3/3 313/3/3
f 316/2/3 313/2/3 315/2/3
f 317/2/3 311/2/3 310/2/3
f 317/3/3 314/3/3 316/3/3
f 317/2/3 312/2/3 311/2/3
f 317/3/3 310/3/3 314/3/3
f 318/2/3 315/2/3 303/2/3
f 319/3/3 316/3/3 315/3/3
f 319/2/3 315/2/3 318/2/3
f 320/2/3 317/2/3 316/2/3
f 320/3/3 316/3/3 319/3/3
f 321/2/3 312/2/3 317/2/3
f 321/2/3 317/2/3 320/2/3
f 323/1/3 322/1/3 321/1/3
f 324/1/3 322/1/3 323/1/3
f 330/1/3 326/1/3 325/1/3
f 331/1/3 326/1/3 330/1/3
f 332/2/3 328/2/3 327/2/3
f 333/3/3 329/3/3 328/3/3
f 333/2/3 328/2/3 332/2/3
f 334/2/3 330/2/3 329/2/3
f 334/3/3 329/3/3 333/3/3
f 335/2/3 330/2/3 334/2/3
f 338/2/3 337/2/3 336/2/3
f 339/2/3 337/2/3 338/2/3
f 340/2/3 338/2/3 336/2/3
f 341/2/3 338/2/3 340/2/3
f 344/2/3 343/2/3 342/2/3
f 346/2/3 344/2/3 342/2/3
f 346/2/3 345/2/3 344/2/3
f 347/2/3 345/2/3 346/2/3
f 352/2/3 349/2/3 348/2/3
f 353/3/3 350/3/3 349/3/3
f 353/2/3 349/2/3 352/2/3
f 354/2/3 351/2/3 350/2/3
f 354/3/3 350/3/3 353/3/3
f 355/2/3 351/2/3 354/2/3
f 357/1/3 356/1/3 355/1/3
f 358/1/3 356/1/3 357/1/3
f 362/1/3 360/1/3 359/1/3
f 363/1/3 360/1/3 362/1/3
f 364/2/3 362/2/3 361/2/3
f 365/2/3 362/2/3 364/2/3
f 366/2/3 362/2/3 365/2/3
f 367/2/3 362/2/3 366/2/3
f 372/2/3 369/2/3 368/2/3
f 372/2/3 371/2/3 370/2/3
f 372/2/3 370/2/3 369/2/3
f 373/2/3 371/2/3 372/2/3
f 375/1/3 374/1/3 373/1/3
f 376/1/3 374/1/3 375/1/3
f 377/1/4 378/1/4 382/1/4
f 382/1/4 378/1/4 383/1/4
f 379/2/4 380/2/4 384/2/4
f 380/3/4 381/3/4 385/3/4
f 384/2/4 380/2/4 385/2/4
f 381/2/4 382/2/4 386/2/4
f 385/3/4 381/3/4 386/3/4
f 386/2/4 382/2/4 387/2/4
f 388/2/4 389/2/4 392/2/4
f 389/3/4 390/3/4 393/3/4
f 392/2/4 389/2/4 393/2/4
f 390/2/4 391/2/4 394/2/4
f 393/3/4 390/3/4 394/3/4
f 394/2/4 391/2/4 395/2/4
f 395/1/4 396/1/4 397/1/4
f 397/1/4 396/1/4 398/1/4
f 399/1/4 400/1/4 402/1/4
f 402/1/4 400/1/4 403/1/4
f 401/2/4 402/2/4 404/2/4
f 404/2/4 402/2/4 405/2/4
f 406/2/4 407/2/4 408/2/4
f 408/2/4 407/2/4 409/2/4
f 410/2/4 411/2/4 412/2/4
f 412/2/4 411/2/4 413/2/4
f 413/1/4 414/1/4 415/1/4
f 415/1/4 414/1/4 416/1/4
f 417/1/4 418/1/4 420/1/4
f 420/1/4 418/1/4 421/1/4
f 419/2/4 420/2/4 422/2/4
f 422/2/4 420/2/4 423/2/4
f 423/2/4 420/2/4 424/2/4
f 424/2/4 420/2/4 425/2/4
f 426/2/4 427/2/4 428/2/4
f 428/2/4 427/2/4 429/2/4
f 429/2/4 430/2/4 432/2/4
f 432/2/4 430/2/4 433/2/4
f 431/2/4 432/2/4 434/2/4
f 434/2/4 432/2/4 435/2/4
f 436/2/4 437/2/4 440/2/4
f 438/2/4 439/2/4 440/2/4
f 437/2/4 438/2/4 440/2/4
f 440/2/4 439/2/4 441/2/4
f 441/1/4 442/1/4 443/1/4
f 443/1/4 442/1/4 444/1/4
f 445/1/4 446/1/4 450/1/4
f 450/1/4 446/1/4 451/1/4
f 447/2/4 448/2/4 452/2/4
f 448/3/4 449/3/4 453/3/4
f 452/2/4 448/2/4 453/2/4
f 449/2/4 450/2/4 454/2/4
f 453/3/4 449/3/4 454/3/4
f 447/2/4 452/2/4 455/2/4
f 452/3/4 453/3/4 455/3/4
f 453/2/4 454/2/4 456/2/4
f 455/3/4 453/3/4 456/3/4
f 454/2/4 450/2/4 457/2/4
f 456/2/4 454/2/4 457/2/4
f 455/2/4 456/2/4 457/2/4
f 457/2/4 450/2/4 458/2/4
f 455/2/4 457/2/4 459/2/4
f 457/3/4 458/3/4 460/3/4
f 459/2/4 457/2/4 460/2/4
f 458/2/4 450/2/4 461/2/4
f 460/3/4 458/3/4 461/3/4
f 455/2/4 459/2/4 462/2/4
f 462/2/4 459/2/4 463/2/4
f 459/3/4 460/3/4 464/3/4
f 463/2/4 459/2/4 464/2/4
f 460/2/4 461/2/4 465/2/4
f 464/3/4 460/3/4 465/3/4
f 447/2/4 455/2/4 466/2/4
f 455/2/4 462/2/4 466/2/4
f 466/2/4 462/2/4 467/2/4
f 462/3/4 463/3/4 468/3/4
f 467/2/4 462/2/4 468/2/4
f 463/2/4 464/2/4 469/2/4
f 468/3/4 463/3/4 469/3/4
f 464/2/4 465/2/4 469/2/4
f 469/2/4 465/2/4 470/2/4
f 467/2/4 468/2/4 471/2/4
f 469/3/4 470/3/4 471/3/4
f 468/2/4 469/2/4 471/2/4
f 470/2/4 465/2/4 472/2/4
f 471/3/4 470/3/4 472/3/4
f 467/2/4 471/2/4 473/2/4
f 471/2/4 472/2/4 473/2/4
f 473/2/4 472/2/4 474/2/4
f 474/2/4 472/2/4 476/2/4
f 476/2/4 472/2/4 477/2/4
f 475/2/4 476/2/4 477/2/4
f 472/2/4 465/2/4 478/2/4
f 477/2/4 472/2/4 478/2/4
f 475/2/4 477/2/4 480/2/4
f 480/2/4 477/2/4 481/2/4
f 477/3/4 478/3/4 482/3/4
f 481/2/4 477/2/4 482/2/4
f 478/2/4 465/2/4 483/2/4
f 482/3/4 478/3/4 483/3/4
f 481/3/4 482/3/4 484/3/4
f 480/2/4 481/2/4 484/2/4
f 479/2/4 480/2/4 484/2/4
f 482/2/4 483/2/4 485/2/4
f 484/3/4 482/3/4 485/3/4
f 483/2/4 465/2/4 486/2/4
f 485/2/4 483/2/4 486/2/4
f 465/2/4 461/2/4 487/2/4
f 486/2/4 465/2/4 487/2/4
f 485/2/4 486/2/4 488/2/4
f 484/2/4 485/2/4 488/2/4
f 486/3/4 487/3/4 488/3/4
f 487/2/4 461/2/4 489/2/4
f 488/3/4 487/3/4 489/3/4
f 461/2/4 450/2/4 490/2/4
f 489/2/4 461/2/4 490/2/4
f 488/2/4 489/2/4 491/2/4
f 489/3/4 490/3/4 491/3/4
f 490/2/4 450/2/4 492/2/4
f 491/3/4 490/3/4 492/3/4
f 484/2/4 488/2/4 493/2/4
f 488/2/4 491/2/4 493/2/4
f 491/2/4 492/2/4 493/2/4
f 479/2/4 484/2/4 493/2/4
f 493/2/4 492/2/4 494/2/4
f 479/2/4 493/2/4 495/2/4
f 493/3/4 494/3/4 495/3/4
f 494/2/4 492/2/4 496/2/4
f 495/3/4 494/3/4 496/3/4
f 496/2/4 492/2/4 497/2/4
f 479/2/4 495/2/4 498/2/4
f 495/2/4 496/2/4 498/2/4
f 496/3/4 497/3/4 499/3/4
f 498/2/4 496/2/4 499/2/4
f 497/2/4 492/2/4 500/2/4
f 499/3/4 497/3/4 500/3/4
f 492/2/4 450/2/4 501/2/4
f 500/2/4 492/2/4 501/2/4
f 501/1/4 502/1/4 503/1/4
f 503/1/4 502/1/4 504/1/4
f 505/1/4 506/1/4 507/1/4
f 507/1/4 506/1/4 508/1/4
f 516/2/5 510/2/5 509/2/5
f 517/2/5 510/2/5 516/2/5
f 518/2/5 512/2/5 511/2/5
f 519/2/5 512/2/5 518/2/5
f 520/2/5 514/2/5 513/2/5
f 521/2/5 514/2/5 520/2/5
f 524/2/5 519/2/5 518/2/5
f 524/2/5 522/2/5 521/2/5
f 524/2/5 521/2/5 520/2/5
f 524/2/5 520/2/5 519/2/5
f 524/2/5 517/2/5 516/2/5
f 524/2/5 518/2/5 517/2/5
f 524/2/5 516/2/5 515/2/5
f 525/2/5 522/2/5 524/2/5
f 527/2/5 524/2/5 523/2/5
f 527/2/5 526/2/5 525/2/5
f 527/2/5 525/2/5 524/2/5
f 528/2/5 526/2/5 527/2/5
f 529/2/5 526/2/5 528/2/5
f 530/2/5 526/2/5 529/2/5
f 531/2/5 529/2/5 528/2/5
f 532/2/5 529/2/5 531/2/5
f 533/2/5 529/2/5 532/2/5
f 534/2/5 529/2/5 533/2/5
f 535/2/5 529/2/5 534/2/5
f 536/2/5 529/2/5 535/2/5
f 537/2/5 533/2/5 532/2/5
f 538/2/5 533/2/5 537/2/5
f 539/2/5 533/2/5 538/2/5
f 540/2/5 533/2/5 539/2/5
f 541/2/5 535/2/5 534/2/5
f 542/2/5 535/2/5 541/2/5
f 543/2/5 535/2/5 542/2/5
f 544/2/5 535/2/5 543/2/5
f 545/2/5 539/2/5 538/2/5
f 546/2/5 539/2/5 545/2/5
f 547/2/5 543/2/5 542/2/5
f 548/2/5 543/2/5 547/2/5
f 552/2/5 550/2/5 549/2/5
f 553/2/5 550/2/5 552/2/5
f 555/2/5 552/2/5 551/2/5
f 556/2/5 552/2/5 555/2/5
f 557/2/5 554/2/5 553/2/5
f 558/2/5 554/2/5 557/2/5
f 562/2/5 560/2/5 559/2/5
f 563/2/5 560/2/5 562/2/5
f 565/2/5 562/2/5 561/2/5
f 566/2/5 562/2/5 565/2/5
f 567/2/5 564/2/5 563/2/5
f 568/2/5 564/2/5 567/2/5
f 574/2/5 570/2/5 569/2/5
f 575/2/5 570/2/5 574/2/5
f 576/2/5 572/2/5 571/2/5
f 577/2/5 572/2/5 576/2/5
f 579/2/5 574/2/5 573/2/5
f 580/2/5 574/2/5 579/2/5
f 581/2/5 578/2/5 577/2/5
f 582/2/5 578/2/5 581/2/5
f 585/2/5 584/2/5 583/2/5
f 586/2/5 584/2/5 585/2/5
f 591/2/5 588/2/5 587/2/5
f 592/2/5 588/2/5 591/2/5
f 593/2/5 590/2/5 589/2/5
f 594/2/5 590/2/5 593/2/5
f 599/2/5 596/2/5 595/2/5
f 600/2/5 596/2/5 599/2/5
f 601/2/5 598/2/5 597/2/5
f 602/2/5 598/2/5 601/2/5
f 607/2/5 604/2/5 603/2/5
f 608/2/5 604/2/5 607/2/5
f 609/2/5 606/2/5 605/2/5
f 610/2/5 606/2/5 609/2/5
f 614/1/5 612/1/5 611/1/5
f 615/1/5 612/1/5 614/1/5
f 616/1/5 612/1/5 615/1/5
f 617/1/5 612/1/5 616/1/5
f 618/1/5 612/1/5 617/1/5
f 619/1/5 612/1/5 618/1/5
f 620/1/5 612/1/5 619/1/5
f 621/1/5 612/1/5 620/1/5
f 624/1/5 614/1/5 613/1/5
f 624/1/5 615/1/5 614/1/5
f 625/1/5 615/1/5 624/1/5
f 626/1/5 621/1/5 620/1/5
f 626/1/5 622/1/5 621/1/5
f 627/1/5 622/1/5 626/1/5
f 630/1/5 624/1/5 623/1/5
f 631/1/5 624/1/5 630/1/5
f 632/1/5 628/1/5 627/1/5
f 633/1/5 628/1/5 632/1/5
f 636/1/5 630/1/5 629/1/5
f 637/1/5 630/1/5 636/1/5
f 638/1/5 634/1/5 633/1/5
f 639/1/5 634/1/5 638/1/5
f 641/1/5 636/1/5 635/1/5
f 642/1/5 636/1/5 641/1/5
f 645/1/5 640/1/5 639/1/5
f 646/1/5 640/1/5 645/1/5
f 647/1/5 643/1/5 642/1/5
f 648/1/5 643/1/5 647/1/5
f 651/1/5 645/1/5 644/1/5
f 652/1/5 645/1/5 651/1/5
f 653/1/5 649/1/5 648/1/5
f 654/1/5 649/1/5 653/1/5
f 657/1/5 651/1/5 650/1/5
f 658/1/5 651/1/5 657/1/5
f 659/1/5 655/1/5 654/1/5
f 660/1/5 655/1/5 659/1/5
f 661/1/5 657/1/5 656/1/5
f 662/1/5 657/1/5 661/1/5
f 663/1/5 661/1/5 660/1/5
f 664/1/5 661/1/5 663/1/5
f 665/1/6 666/1/6 668/1/6
f 668/1/6 666/1/6 669/1/6
f 667/1/6 668/1/6 672/1/6
f 669/1/6 670/1/6 672/1/6
f 668/1/6 669/1/6 672/1/6
f 672/1/6 670/1/6 673/1/6
f 671/1/6 672/1/6 676/1/6
f 673/1/6 674/1/6 676/1/6
f 672/1/6 673/1/6 676/1/6
f 676/1/6 674/1/6 677/1/6
f 675/1/6 676/1/6 680/1/6
f 677/1/6 678/1/6 680/1/6
f 676/1/6 677/1/6 680/1/6
f 680/1/6 678/1/6 681/1/6
f 679/1/6 680/1/6 683/1/6
f 681/1/6 682/1/6 683/1/6
f 680/1/6 681/1/6 683/1/6
f 683/1/6 682/1/6 684/1/6
f 684/1/6 682/1/6 685/1/6
f 685/1/6 682/1/6 686/1/6
f 684/1/6 685/1/6 687/1/6
f 687/1/6 685/1/6 688/1/6
f 688/1/6 685/1/6 689/1/6
f 689/1/6 685/1/6 690/1/6
f 688/1/6 689/1/6 691/1/6
f 691/1/6 689/1/6 692/1/6
f 692/1/6 689/1/6 693/1/6
f 693/1/6 689/1/6 694/1/6
f 692/1/6 693/1/6 695/1/6
f 695/1/6 693/1/6 696/1/6
f 696/1/6 693/1/6 697/1/6
f 697/1/6 693/1/6 698/1/6
f 696/1/6 697/1/6 699/1/6
f 699/1/6 697/1/6 700/1/6
