# MagicaVoxel @ Ephtracy

# group
o 

# material
mtllib EnemySkeleton3-4.mtl
usemtl palette

# normals
vn -1 0 0
vn 1 0 0
vn 0 0 1
vn 0 0 -1
vn 0 -1 0
vn 0 1 0

# texcoords
vt 0.939453 0.5
vt 0.943359 0.5

# verts
v 1 5.4 0.1
v 1 5.4 -0.1
v 1 5.4 -0.2
v 1 5.5 -0.1
v 1 5.5 -0.2
v 1 5.6 0.1
v 1 5.6 -0.1
v 1.1 4.4 0.1
v 1.1 4.4 -0.1
v 1.1 5.4 0.1
v 1.1 5.4 -0.1
v 1.1 5.4 -0.1
v 1.1 5.4 -0.2
v 1.1 5.5 -0.1
v 1.1 5.5 -0.2
v 1.2 5.4 0.1
v 1.2 5.4 -0.1
v 1.2 5.6 0.1
v 1.2 5.6 -0.1
v 1.3 4.4 0.1
v 1.3 4.4 -0.1
v 1.3 5.4 0.1
v 1.3 5.4 -0.1
v 1 5.4 0.1
v 1 5.6 0.1
v 1.1 4.4 0.1
v 1.1 5.4 0.1
v 1.2 5.4 0.1
v 1.2 5.6 0.1
v 1.3 4.4 0.1
v 1.3 5.4 0.1
v 1 5.5 -0.1
v 1 5.6 -0.1
v 1.1 4.4 -0.1
v 1.1 5.4 -0.1
v 1.1 5.5 -0.1
v 1.2 5.4 -0.1
v 1.2 5.6 -0.1
v 1.3 4.4 -0.1
v 1.3 5.4 -0.1
v 1 5.4 -0.2
v 1 5.5 -0.2
v 1.1 5.4 -0.2
v 1.1 5.5 -0.2
v 1.1 4.4 0.1
v 1.3 4.4 0.1
v 1.1 4.4 -0.1
v 1.3 4.4 -0.1
v 1 5.4 0.1
v 1.1 5.4 0.1
v 1 5.4 -0.1
v 1.1 5.4 -0.1
v 1 5.4 -0.2
v 1.1 5.4 -0.2
v 1.2 5.4 0.1
v 1.3 5.4 0.1
v 1.2 5.4 -0.1
v 1.3 5.4 -0.1
v 1 5.5 -0.1
v 1.1 5.5 -0.1
v 1 5.5 -0.2
v 1.1 5.5 -0.2
v 1 5.6 0.1
v 1.2 5.6 0.1
v 1 5.6 -0.1
v 1.2 5.6 -0.1

# faces
f 4/1/1 2/1/1 1/1/1
f 4/2/1 3/2/1 2/2/1
f 5/2/1 3/2/1 4/2/1
f 6/1/1 4/1/1 1/1/1
f 7/1/1 4/1/1 6/1/1
f 10/1/1 9/1/1 8/1/1
f 11/1/1 9/1/1 10/1/1
f 12/2/2 13/2/2 14/2/2
f 14/2/2 13/2/2 15/2/2
f 16/1/2 17/1/2 18/1/2
f 18/1/2 17/1/2 19/1/2
f 20/1/2 21/1/2 22/1/2
f 22/1/2 21/1/2 23/1/2
f 27/1/3 25/1/3 24/1/3
f 28/1/3 25/1/3 27/1/3
f 28/1/3 27/1/3 26/1/3
f 29/1/3 25/1/3 28/1/3
f 30/1/3 28/1/3 26/1/3
f 31/1/3 28/1/3 30/1/3
f 32/1/4 33/1/4 36/1/4
f 34/1/4 35/1/4 37/1/4
f 35/1/4 36/1/4 37/1/4
f 36/1/4 33/1/4 38/1/4
f 37/1/4 36/1/4 38/1/4
f 34/1/4 37/1/4 39/1/4
f 39/1/4 37/1/4 40/1/4
f 41/2/4 42/2/4 43/2/4
f 43/2/4 42/2/4 44/2/4
f 47/1/5 46/1/5 45/1/5
f 48/1/5 46/1/5 47/1/5
f 51/1/5 50/1/5 49/1/5
f 52/1/5 50/1/5 51/1/5
f 53/2/5 52/2/5 51/2/5
f 54/2/5 52/2/5 53/2/5
f 55/1/6 56/1/6 57/1/6
f 57/1/6 56/1/6 58/1/6
f 59/2/6 60/2/6 61/2/6
f 61/2/6 60/2/6 62/2/6
f 63/1/6 64/1/6 65/1/6
f 65/1/6 64/1/6 66/1/6
