# MagicaVoxel @ Ephtracy

# group
o 

# material
mtllib Minotaur1-4.mtl
usemtl palette

# normals
vn -1 0 0
vn 1 0 0
vn 0 0 1
vn 0 0 -1
vn 0 -1 0
vn 0 1 0

# texcoords
vt 0.0332031 0.5
vt 0.0527344 0.5
vt 0.0605469 0.5
vt 0.947266 0.5
vt 0.951172 0.5

# verts
v 0.9 1.6 0.4
v 0.9 1.6 0
v 0.9 1.7 0
v 0.9 1.7 -0.1
v 0.9 1.8 0.5
v 0.9 1.8 0.4
v 0.9 2.2 0.2
v 0.9 2.2 -0.1
v 0.9 2.3 0.3
v 0.9 2.3 0.2
v 0.9 2.4 0.5
v 0.9 2.4 0.3
v 1 0.1 1.2
v 1 0.1 0.5
v 1 0.1 0.2
v 1 0.1 -0.2
v 1 0.2 1.2
v 1 0.2 0.5
v 1 0.2 0.2
v 1 0.2 -0.2
v 1 0.4 1.2
v 1 0.4 1.1
v 1 0.5 1.1
v 1 0.5 0.5
v 1 0.5 0.2
v 1 0.5 -0.2
v 1 1.2 0.5
v 1 1.2 -0.1
v 1 1.5 0.5
v 1 1.5 0.4
v 1 1.5 0.0999999
v 1 1.5 -0.1
v 1 1.6 0.4
v 1 1.6 0.0999999
v 1 1.6 0
v 1 1.6 -0.2
v 1 1.7 0.5
v 1 1.7 0.4
v 1 1.7 0
v 1 1.7 -0.1
v 1 1.8 0.5
v 1 1.8 0.4
v 1 1.9 0.6
v 1 1.9 0.5
v 1 2.2 0.2
v 1 2.2 -0.1
v 1 2.2 -0.2
v 1 2.3 0.3
v 1 2.3 0.2
v 1 2.3 0.0999999
v 1 2.3 -0.1
v 1 2.4 0.6
v 1 2.4 0.5
v 1 2.4 0.3
v 1 2.4 0.0999999
v 1.1 0.1 1.3
v 1.1 0.1 1.2
v 1.1 0.1 0.5
v 1.1 0.1 0.2
v 1.1 0.2 1.3
v 1.1 0.2 1.2
v 1.1 0.2 0.5
v 1.1 0.2 0.2
v 1.1 0.4 1.3
v 1.1 0.4 1.2
v 1.1 0.4 1.1
v 1.1 0.5 1.2
v 1.1 0.5 1.1
v 1.1 0.5 0.5
v 1.1 0.5 0.2
v 1.1 0.5 -0.1
v 1.1 0.6 1.1
v 1.1 0.6 0.5
v 1.1 1.2 0.6
v 1.1 1.2 0.5
v 1.1 1.2 -0.1
v 1.1 1.2 -0.2
v 1.1 1.5 0.6
v 1.1 1.5 0.5
v 1.1 1.5 0.4
v 1.1 1.5 0.0999999
v 1.1 1.5 -0.1
v 1.1 1.5 -0.2
v 1.1 1.6 0.0999999
v 1.1 1.6 -0.1
v 1.1 1.7 0.5
v 1.1 1.7 0.4
v 1.1 1.9 0.6
v 1.1 1.9 0.5
v 1.1 2.2 -0.1
v 1.1 2.2 -0.2
v 1.1 2.3 0.0999999
v 1.1 2.3 -0.1
v 1.1 2.3 -0.2
v 1.1 2.4 0.0999999
v 1.1 2.4 -0.1
v 1.2 2.3 -0.1
v 1.2 2.3 -0.2
v 1.2 2.4 -0.1
v 1.2 2.4 -0.2
v 1.4 1.6 -0.1
v 1.4 1.6 -0.2
v 1.4 1.7 -0.1
v 1.4 1.7 -0.2
v 1.2 1.6 -0.1
v 1.2 1.6 -0.2
v 1.2 1.7 -0.1
v 1.2 1.7 -0.2
v 1.4 2.3 -0.1
v 1.4 2.3 -0.2
v 1.4 2.4 -0.1
v 1.4 2.4 -0.2
v 1.5 0.1 1.3
v 1.5 0.1 1.1
v 1.5 0.1 0.2
v 1.5 0.1 -0.2
v 1.5 0.2 1.3
v 1.5 0.2 1.1
v 1.5 0.2 0.2
v 1.5 0.2 -0.2
v 1.5 0.4 1.3
v 1.5 0.4 1.2
v 1.5 0.4 1.1
v 1.5 0.4 1
v 1.5 0.5 1.2
v 1.5 0.5 1.1
v 1.5 0.5 -0.1
v 1.5 0.5 -0.2
v 1.5 0.6 1.1
v 1.5 0.6 1
v 1.5 0.6 0.5
v 1.5 0.6 0.2
v 1.5 1.2 0.6
v 1.5 1.2 0.5
v 1.5 1.2 -0.1
v 1.5 1.2 -0.2
v 1.5 1.5 0.6
v 1.5 1.5 0.5
v 1.5 1.5 0.4
v 1.5 1.5 0.0999999
v 1.5 1.5 0
v 1.5 1.5 -0.1
v 1.5 1.5 -0.2
v 1.5 1.6 0.0999999
v 1.5 1.6 0
v 1.5 1.6 -0.1
v 1.5 1.7 0.5
v 1.5 1.7 0.4
v 1.5 1.9 0.6
v 1.5 1.9 0.5
v 1.5 2.2 -0.1
v 1.5 2.2 -0.2
v 1.5 2.3 0.2
v 1.5 2.3 -0.1
v 1.5 2.3 -0.2
v 1.5 2.4 0.2
v 1.5 2.4 -0.1
v 1.6 0.1 1.1
v 1.6 0.1 0.2
v 1.6 0.2 1.1
v 1.6 0.2 0.2
v 1.6 0.4 1.1
v 1.6 0.4 1
v 1.6 0.6 1
v 1.6 0.6 0.2
v 1.6 1.2 0.5
v 1.6 1.2 -0.1
v 1.6 1.5 0.5
v 1.6 1.5 0.4
v 1.6 1.5 0.0999999
v 1.6 1.5 -0.1
v 1.6 1.6 0.4
v 1.6 1.6 0.2
v 1.6 1.6 0.0999999
v 1.6 1.6 -0.2
v 1.6 1.7 0.5
v 1.6 1.7 0.4
v 1.6 1.7 0.2
v 1.6 1.7 0
v 1.6 1.8 0.5
v 1.6 1.8 0.4
v 1.6 1.8 0
v 1.6 1.8 -0.1
v 1.6 1.9 0.6
v 1.6 1.9 0.5
v 1.6 2.2 0.2
v 1.6 2.2 -0.1
v 1.6 2.2 -0.2
v 1.6 2.3 0.3
v 1.6 2.3 0.2
v 1.6 2.3 -0.1
v 1.6 2.4 0.6
v 1.6 2.4 0.5
v 1.6 2.4 0.3
v 1.6 2.4 0.2
v 1.7 1.6 0.4
v 1.7 1.6 0.2
v 1.7 1.7 0.2
v 1.7 1.7 0
v 1.7 1.8 0.5
v 1.7 1.8 0.4
v 1.7 1.8 0
v 1.7 1.8 -0.1
v 1.7 2.2 0.2
v 1.7 2.2 -0.1
v 1.7 2.3 0.3
v 1.7 2.3 0.2
v 1.7 2.4 0.5
v 1.7 2.4 0.3
v 1.1 0.1 1.3
v 1.1 0.2 1.3
v 1.1 0.4 1.3
v 1.5 0.1 1.3
v 1.5 0.2 1.3
v 1.5 0.4 1.3
v 1 0.1 1.2
v 1 0.2 1.2
v 1 0.4 1.2
v 1.1 0.1 1.2
v 1.1 0.2 1.2
v 1.1 0.4 1.2
v 1.1 0.5 1.2
v 1.5 0.4 1.2
v 1.5 0.5 1.2
v 1 0.4 1.1
v 1 0.5 1.1
v 1.1 0.4 1.1
v 1.1 0.5 1.1
v 1.1 0.6 1.1
v 1.5 0.1 1.1
v 1.5 0.2 1.1
v 1.5 0.4 1.1
v 1.5 0.5 1.1
v 1.5 0.6 1.1
v 1.6 0.1 1.1
v 1.6 0.2 1.1
v 1.6 0.4 1.1
v 1.5 0.4 1
v 1.5 0.6 1
v 1.6 0.4 1
v 1.6 0.6 1
v 1 1.9 0.6
v 1 2.4 0.6
v 1.1 1.2 0.6
v 1.1 1.5 0.6
v 1.1 1.9 0.6
v 1.5 1.2 0.6
v 1.5 1.5 0.6
v 1.5 1.9 0.6
v 1.6 1.9 0.6
v 1.6 2.4 0.6
v 0.9 1.8 0.5
v 0.9 2.4 0.5
v 1 1.2 0.5
v 1 1.5 0.5
v 1 1.7 0.5
v 1 1.8 0.5
v 1 1.9 0.5
v 1 2.4 0.5
v 1.1 0.6 0.5
v 1.1 1.2 0.5
v 1.1 1.5 0.5
v 1.1 1.7 0.5
v 1.1 1.9 0.5
v 1.5 0.6 0.5
v 1.5 1.2 0.5
v 1.5 1.5 0.5
v 1.5 1.7 0.5
v 1.5 1.9 0.5
v 1.6 1.2 0.5
v 1.6 1.5 0.5
v 1.6 1.7 0.5
v 1.6 1.8 0.5
v 1.6 1.9 0.5
v 1.6 2.4 0.5
v 1.7 1.8 0.5
v 1.7 2.4 0.5
v 0.9 1.6 0.4
v 0.9 1.8 0.4
v 1 1.5 0.4
v 1 1.6 0.4
v 1 1.7 0.4
v 1 1.8 0.4
v 1.1 1.5 0.4
v 1.1 1.7 0.4
v 1.5 1.5 0.4
v 1.5 1.7 0.4
v 1.6 1.5 0.4
v 1.6 1.6 0.4
v 1.6 1.7 0.4
v 1.6 1.8 0.4
v 1.7 1.6 0.4
v 1.7 1.8 0.4
v 1 0.1 0.2
v 1 0.2 0.2
v 1 0.5 0.2
v 1.1 0.1 0.2
v 1.1 0.2 0.2
v 1.1 0.5 0.2
v 1 0.1 0.5
v 1 0.2 0.5
v 1 0.5 0.5
v 1.1 0.1 0.5
v 1.1 0.2 0.5
v 1.1 0.5 0.5
v 0.9 2.3 0.3
v 0.9 2.4 0.3
v 1 2.3 0.3
v 1 2.4 0.3
v 1.6 2.3 0.3
v 1.6 2.4 0.3
v 1.7 2.3 0.3
v 1.7 2.4 0.3
v 0.9 2.2 0.2
v 0.9 2.3 0.2
v 1 2.2 0.2
v 1 2.3 0.2
v 1.5 0.1 0.2
v 1.5 0.2 0.2
v 1.5 0.6 0.2
v 1.5 2.3 0.2
v 1.5 2.4 0.2
v 1.6 0.1 0.2
v 1.6 0.2 0.2
v 1.6 0.6 0.2
v 1.6 1.6 0.2
v 1.6 1.7 0.2
v 1.6 2.2 0.2
v 1.6 2.3 0.2
v 1.6 2.4 0.2
v 1.7 1.6 0.2
v 1.7 1.7 0.2
v 1.7 2.2 0.2
v 1.7 2.3 0.2
v 1 1.5 0.0999999
v 1 1.6 0.0999999
v 1 2.3 0.0999999
v 1 2.4 0.0999999
v 1.1 1.5 0.0999999
v 1.1 1.6 0.0999999
v 1.1 2.3 0.0999999
v 1.1 2.4 0.0999999
v 1.5 1.5 0.0999999
v 1.5 1.6 0.0999999
v 1.6 1.5 0.0999999
v 1.6 1.6 0.0999999
v 0.9 1.6 0
v 0.9 1.7 0
v 1 1.6 0
v 1 1.7 0
v 1.6 1.7 0
v 1.6 1.8 0
v 1.7 1.7 0
v 1.7 1.8 0
v 0.9 1.7 -0.1
v 0.9 2.2 -0.1
v 1 1.2 -0.1
v 1 1.5 -0.1
v 1 1.7 -0.1
v 1 2.2 -0.1
v 1 2.3 -0.1
v 1.1 0.5 -0.1
v 1.1 1.2 -0.1
v 1.1 1.5 -0.1
v 1.1 1.6 -0.1
v 1.1 2.2 -0.1
v 1.1 2.3 -0.1
v 1.1 2.4 -0.1
v 1.2 1.5 -0.1
v 1.2 1.6 -0.1
v 1.2 1.7 -0.1
v 1.2 2.3 -0.1
v 1.2 2.4 -0.1
v 1.4 1.5 -0.1
v 1.4 1.6 -0.1
v 1.4 1.7 -0.1
v 1.4 2.3 -0.1
v 1.4 2.4 -0.1
v 1.5 0.5 -0.1
v 1.5 1.2 -0.1
v 1.5 1.5 -0.1
v 1.5 1.6 -0.1
v 1.5 2.2 -0.1
v 1.5 2.3 -0.1
v 1.5 2.4 -0.1
v 1.6 1.2 -0.1
v 1.6 1.5 -0.1
v 1.6 1.8 -0.1
v 1.6 2.2 -0.1
v 1.6 2.3 -0.1
v 1.7 1.8 -0.1
v 1.7 2.2 -0.1
v 1 0.1 -0.2
v 1 0.2 -0.2
v 1 0.5 -0.2
v 1 1.6 -0.2
v 1 2.2 -0.2
v 1.1 1.2 -0.2
v 1.1 1.5 -0.2
v 1.1 2.2 -0.2
v 1.1 2.3 -0.2
v 1.2 1.6 -0.2
v 1.2 1.7 -0.2
v 1.2 2.3 -0.2
v 1.2 2.4 -0.2
v 1.4 1.6 -0.2
v 1.4 1.7 -0.2
v 1.4 2.3 -0.2
v 1.4 2.4 -0.2
v 1.5 0.1 -0.2
v 1.5 0.2 -0.2
v 1.5 0.5 -0.2
v 1.5 1.2 -0.2
v 1.5 1.5 -0.2
v 1.5 2.2 -0.2
v 1.5 2.3 -0.2
v 1.6 1.6 -0.2
v 1.6 2.2 -0.2
v 1.1 0.1 1.3
v 1.5 0.1 1.3
v 1 0.1 1.2
v 1.1 0.1 1.2
v 1.5 0.1 1.1
v 1.6 0.1 1.1
v 1 0.1 0.5
v 1.1 0.1 0.5
v 1 0.1 0.2
v 1.1 0.1 0.2
v 1.5 0.1 0.2
v 1.6 0.1 0.2
v 1 0.1 -0.2
v 1.5 0.1 -0.2
v 1.1 1.2 0.6
v 1.5 1.2 0.6
v 1 1.2 0.5
v 1.1 1.2 0.5
v 1.5 1.2 0.5
v 1.6 1.2 0.5
v 1 1.2 -0.1
v 1.1 1.2 -0.1
v 1.5 1.2 -0.1
v 1.6 1.2 -0.1
v 1.1 1.2 -0.2
v 1.5 1.2 -0.2
v 0.9 1.6 0.4
v 1 1.6 0.4
v 1.6 1.6 0.4
v 1.7 1.6 0.4
v 1.6 1.6 0.2
v 1.7 1.6 0.2
v 1 1.6 0.0999999
v 1.1 1.6 0.0999999
v 1.5 1.6 0.0999999
v 1.6 1.6 0.0999999
v 0.9 1.6 0
v 1 1.6 0
v 1.5 1.6 0
v 1.1 1.6 -0.1
v 1.2 1.6 -0.1
v 1.4 1.6 -0.1
v 1.5 1.6 -0.1
v 1 1.6 -0.2
v 1.2 1.6 -0.2
v 1.4 1.6 -0.2
v 1.6 1.6 -0.2
v 1 1.7 0.5
v 1.1 1.7 0.5
v 1.5 1.7 0.5
v 1.6 1.7 0.5
v 1 1.7 0.4
v 1.1 1.7 0.4
v 1.5 1.7 0.4
v 1.6 1.7 0.4
v 1.6 1.7 0.2
v 1.7 1.7 0.2
v 0.9 1.7 0
v 1 1.7 0
v 1.6 1.7 0
v 1.7 1.7 0
v 0.9 1.7 -0.1
v 1 1.7 -0.1
v 1.2 1.7 -0.1
v 1.4 1.7 -0.1
v 1.2 1.7 -0.2
v 1.4 1.7 -0.2
v 0.9 1.8 0.5
v 1 1.8 0.5
v 1.6 1.8 0.5
v 1.7 1.8 0.5
v 0.9 1.8 0.4
v 1 1.8 0.4
v 1.6 1.8 0.4
v 1.7 1.8 0.4
v 1.6 1.8 0
v 1.7 1.8 0
v 1.6 1.8 -0.1
v 1.7 1.8 -0.1
v 1 1.9 0.6
v 1.1 1.9 0.6
v 1.5 1.9 0.6
v 1.6 1.9 0.6
v 1 1.9 0.5
v 1.1 1.9 0.5
v 1.5 1.9 0.5
v 1.6 1.9 0.5
v 1.1 0.4 1.3
v 1.5 0.4 1.3
v 1 0.4 1.2
v 1.1 0.4 1.2
v 1.5 0.4 1.2
v 1 0.4 1.1
v 1.1 0.4 1.1
v 1.5 0.4 1.1
v 1.6 0.4 1.1
v 1.5 0.4 1
v 1.6 0.4 1
v 1.1 0.5 1.2
v 1.5 0.5 1.2
v 1 0.5 1.1
v 1.1 0.5 1.1
v 1.5 0.5 1.1
v 1 0.5 0.5
v 1.1 0.5 0.5
v 1 0.5 0.2
v 1.1 0.5 0.2
v 1.1 0.5 -0.1
v 1.5 0.5 -0.1
v 1 0.5 -0.2
v 1.5 0.5 -0.2
v 1.1 0.6 1.1
v 1.5 0.6 1.1
v 1.5 0.6 1
v 1.6 0.6 1
v 1.1 0.6 0.5
v 1.5 0.6 0.5
v 1.5 0.6 0.2
v 1.6 0.6 0.2
v 1 1.5 0.5
v 1.1 1.5 0.5
v 1.5 1.5 0.5
v 1.6 1.5 0.5
v 1 1.5 0.4
v 1.1 1.5 0.4
v 1.5 1.5 0.4
v 1.6 1.5 0.4
v 1 1.5 0.0999999
v 1.1 1.5 0.0999999
v 1.5 1.5 0.0999999
v 1.6 1.5 0.0999999
v 1.5 1.5 0
v 1 1.5 -0.1
v 1.1 1.5 -0.1
v 1.2 1.5 -0.1
v 1.4 1.5 -0.1
v 1.5 1.5 -0.1
v 1.6 1.5 -0.1
v 1.1 1.5 -0.2
v 1.5 1.5 -0.2
v 0.9 2.2 0.2
v 1 2.2 0.2
v 1.6 2.2 0.2
v 1.7 2.2 0.2
v 0.9 2.2 -0.1
v 1 2.2 -0.1
v 1.1 2.2 -0.1
v 1.5 2.2 -0.1
v 1.6 2.2 -0.1
v 1.7 2.2 -0.1
v 1 2.2 -0.2
v 1.1 2.2 -0.2
v 1.5 2.2 -0.2
v 1.6 2.2 -0.2
v 0.9 2.3 0.3
v 1 2.3 0.3
v 1.6 2.3 0.3
v 1.7 2.3 0.3
v 0.9 2.3 0.2
v 1 2.3 0.2
v 1.5 2.3 0.2
v 1.6 2.3 0.2
v 1.7 2.3 0.2
v 1 2.3 0.0999999
v 1.1 2.3 0.0999999
v 1 2.3 -0.1
v 1.1 2.3 -0.1
v 1.2 2.3 -0.1
v 1.4 2.3 -0.1
v 1.5 2.3 -0.1
v 1.6 2.3 -0.1
v 1.1 2.3 -0.2
v 1.2 2.3 -0.2
v 1.4 2.3 -0.2
v 1.5 2.3 -0.2
v 1 2.4 0.6
v 1.6 2.4 0.6
v 0.9 2.4 0.5
v 1 2.4 0.5
v 1.6 2.4 0.5
v 1.7 2.4 0.5
v 0.9 2.4 0.3
v 1 2.4 0.3
v 1.6 2.4 0.3
v 1.7 2.4 0.3
v 1.5 2.4 0.2
v 1.6 2.4 0.2
v 1 2.4 0.0999999
v 1.1 2.4 0.0999999
v 1.1 2.4 -0.1
v 1.2 2.4 -0.1
v 1.4 2.4 -0.1
v 1.5 2.4 -0.1
v 1.2 2.4 -0.2
v 1.4 2.4 -0.2

# faces
f 3/4/1 2/4/1 1/4/1
f 6/4/1 3/4/1 1/4/1
f 6/4/1 4/4/1 3/4/1
f 7/4/1 4/4/1 6/4/1
f 7/4/1 6/4/1 5/4/1
f 8/4/1 4/4/1 7/4/1
f 9/4/1 7/4/1 5/4/1
f 10/4/1 7/4/1 9/4/1
f 11/4/1 9/4/1 5/4/1
f 12/4/1 9/4/1 11/4/1
f 17/3/1 14/3/1 13/3/1
f 18/3/1 14/3/1 17/3/1
f 19/3/1 16/3/1 15/3/1
f 20/3/1 16/3/1 19/3/1
f 21/2/1 18/2/1 17/2/1
f 22/2/1 18/2/1 21/2/1
f 23/2/1 18/2/1 22/2/1
f 24/2/1 18/2/1 23/2/1
f 25/2/1 20/2/1 19/2/1
f 26/2/1 20/2/1 25/2/1
f 29/1/1 28/1/1 27/1/1
f 30/1/1 28/1/1 29/1/1
f 31/1/1 28/1/1 30/1/1
f 32/1/1 28/1/1 31/1/1
f 33/4/1 31/4/1 30/4/1
f 34/4/1 31/4/1 33/4/1
f 39/4/1 36/4/1 35/4/1
f 40/4/1 36/4/1 39/4/1
f 41/4/1 38/4/1 37/4/1
f 42/4/1 38/4/1 41/4/1
f 46/4/1 36/4/1 40/4/1
f 47/4/1 36/4/1 46/4/1
f 49/4/1 46/4/1 45/4/1
f 50/4/1 46/4/1 49/4/1
f 51/4/1 46/4/1 50/4/1
f 52/4/1 44/4/1 43/4/1
f 53/4/1 44/4/1 52/4/1
f 54/4/1 49/4/1 48/4/1
f 54/4/1 50/4/1 49/4/1
f 55/4/1 50/4/1 54/4/1
f 60/3/1 57/3/1 56/3/1
f 61/3/1 57/3/1 60/3/1
f 62/3/1 59/3/1 58/3/1
f 63/3/1 59/3/1 62/3/1
f 64/2/1 61/2/1 60/2/1
f 65/2/1 61/2/1 64/2/1
f 67/2/1 66/2/1 65/2/1
f 68/2/1 66/2/1 67/2/1
f 69/2/1 63/2/1 62/2/1
f 70/2/1 63/2/1 69/2/1
f 72/2/1 70/2/1 69/2/1
f 72/2/1 71/2/1 70/2/1
f 72/2/1 69/2/1 68/2/1
f 73/2/1 71/2/1 72/2/1
f 75/2/1 71/2/1 73/2/1
f 76/2/1 71/2/1 75/2/1
f 78/1/1 75/1/1 74/1/1
f 79/1/1 75/1/1 78/1/1
f 82/1/1 77/1/1 76/1/1
f 83/1/1 77/1/1 82/1/1
f 84/5/1 82/5/1 81/5/1
f 85/5/1 82/5/1 84/5/1
f 86/4/1 80/4/1 79/4/1
f 86/4/1 79/4/1 78/4/1
f 87/4/1 80/4/1 86/4/1
f 88/4/1 86/4/1 78/4/1
f 89/4/1 86/4/1 88/4/1
f 93/4/1 91/4/1 90/4/1
f 94/4/1 91/4/1 93/4/1
f 95/4/1 93/4/1 92/4/1
f 96/4/1 93/4/1 95/4/1
f 99/4/1 98/4/1 97/4/1
f 100/4/1 98/4/1 99/4/1
f 103/4/1 102/4/1 101/4/1
f 104/4/1 102/4/1 103/4/1
f 105/4/2 106/4/2 107/4/2
f 107/4/2 106/4/2 108/4/2
f 109/4/2 110/4/2 111/4/2
f 111/4/2 110/4/2 112/4/2
f 113/3/2 114/3/2 117/3/2
f 117/3/2 114/3/2 118/3/2
f 115/3/2 116/3/2 119/3/2
f 119/3/2 116/3/2 120/3/2
f 117/2/2 118/2/2 121/2/2
f 121/2/2 118/2/2 122/2/2
f 122/2/2 118/2/2 123/2/2
f 123/2/2 124/2/2 125/2/2
f 122/2/2 123/2/2 125/2/2
f 125/2/2 124/2/2 126/2/2
f 119/2/2 120/2/2 127/2/2
f 127/2/2 120/2/2 128/2/2
f 126/2/2 124/2/2 129/2/2
f 129/2/2 124/2/2 130/2/2
f 119/2/2 127/2/2 132/2/2
f 131/2/2 132/2/2 134/2/2
f 132/2/2 127/2/2 135/2/2
f 134/2/2 132/2/2 135/2/2
f 133/1/2 134/1/2 137/1/2
f 137/1/2 134/1/2 138/1/2
f 135/1/2 136/1/2 142/1/2
f 142/1/2 136/1/2 143/1/2
f 140/4/2 141/4/2 144/4/2
f 141/5/2 142/5/2 145/5/2
f 144/4/2 141/4/2 145/4/2
f 145/5/2 142/5/2 146/5/2
f 137/4/2 138/4/2 147/4/2
f 138/4/2 139/4/2 147/4/2
f 147/4/2 139/4/2 148/4/2
f 137/4/2 147/4/2 149/4/2
f 149/4/2 147/4/2 150/4/2
f 151/4/2 152/4/2 154/4/2
f 154/4/2 152/4/2 155/4/2
f 153/4/2 154/4/2 156/4/2
f 156/4/2 154/4/2 157/4/2
f 158/3/2 159/3/2 160/3/2
f 160/3/2 159/3/2 161/3/2
f 160/2/2 161/2/2 162/2/2
f 162/2/2 161/2/2 163/2/2
f 163/2/2 161/2/2 164/2/2
f 164/2/2 161/2/2 165/2/2
f 166/1/2 167/1/2 168/1/2
f 168/1/2 167/1/2 169/1/2
f 169/1/2 167/1/2 170/1/2
f 170/1/2 167/1/2 171/1/2
f 169/4/2 170/4/2 172/4/2
f 172/4/2 170/4/2 173/4/2
f 173/4/2 170/4/2 174/4/2
f 173/4/2 174/4/2 178/4/2
f 174/4/2 175/4/2 178/4/2
f 178/4/2 175/4/2 179/4/2
f 176/4/2 177/4/2 180/4/2
f 180/4/2 177/4/2 181/4/2
f 179/4/2 175/4/2 182/4/2
f 182/4/2 175/4/2 183/4/2
f 183/4/2 175/4/2 187/4/2
f 187/4/2 175/4/2 188/4/2
f 186/4/2 187/4/2 190/4/2
f 190/4/2 187/4/2 191/4/2
f 184/4/2 185/4/2 192/4/2
f 192/4/2 185/4/2 193/4/2
f 189/4/2 190/4/2 194/4/2
f 194/4/2 190/4/2 195/4/2
f 196/4/2 197/4/2 198/4/2
f 196/4/2 198/4/2 201/4/2
f 198/4/2 199/4/2 201/4/2
f 201/4/2 199/4/2 202/4/2
f 200/4/2 201/4/2 204/4/2
f 202/4/2 203/4/2 204/4/2
f 201/4/2 202/4/2 204/4/2
f 204/4/2 203/4/2 205/4/2
f 200/4/2 204/4/2 206/4/2
f 206/4/2 204/4/2 207/4/2
f 200/4/2 206/4/2 208/4/2
f 208/4/2 206/4/2 209/4/2
f 213/3/3 211/3/3 210/3/3
f 214/2/3 212/2/3 211/2/3
f 214/3/3 211/3/3 213/3/3
f 215/2/3 212/2/3 214/2/3
f 219/3/3 217/3/3 216/3/3
f 220/2/3 218/2/3 217/2/3
f 220/3/3 217/3/3 219/3/3
f 221/2/3 218/2/3 220/2/3
f 223/2/3 222/2/3 221/2/3
f 224/2/3 222/2/3 223/2/3
f 227/2/3 226/2/3 225/2/3
f 228/2/3 226/2/3 227/2/3
f 233/2/3 229/2/3 228/2/3
f 234/2/3 229/2/3 233/2/3
f 235/3/3 231/3/3 230/3/3
f 236/2/3 232/2/3 231/2/3
f 236/3/3 231/3/3 235/3/3
f 237/2/3 232/2/3 236/2/3
f 240/2/3 239/2/3 238/2/3
f 241/2/3 239/2/3 240/2/3
f 246/4/3 243/4/3 242/4/3
f 247/1/3 245/1/3 244/1/3
f 248/4/3 246/4/3 245/4/3
f 248/1/3 245/1/3 247/1/3
f 249/4/3 243/4/3 246/4/3
f 249/4/3 246/4/3 248/4/3
f 250/4/3 243/4/3 249/4/3
f 251/4/3 243/4/3 250/4/3
f 257/4/3 253/4/3 252/4/3
f 258/4/3 253/4/3 257/4/3
f 259/4/3 253/4/3 258/4/3
f 261/1/3 255/1/3 254/1/3
f 262/1/3 255/1/3 261/1/3
f 263/4/3 257/4/3 256/4/3
f 263/4/3 258/4/3 257/4/3
f 264/4/3 258/4/3 263/4/3
f 265/2/3 261/2/3 260/2/3
f 266/2/3 261/2/3 265/2/3
f 270/1/3 267/1/3 266/1/3
f 271/1/3 267/1/3 270/1/3
f 272/4/3 269/4/3 268/4/3
f 273/4/3 269/4/3 272/4/3
f 274/4/3 269/4/3 273/4/3
f 276/4/3 274/4/3 273/4/3
f 276/4/3 275/4/3 274/4/3
f 277/4/3 275/4/3 276/4/3
f 281/4/3 279/4/3 278/4/3
f 282/4/3 279/4/3 281/4/3
f 283/4/3 279/4/3 282/4/3
f 284/4/3 281/4/3 280/4/3
f 284/4/3 282/4/3 281/4/3
f 285/4/3 282/4/3 284/4/3
f 288/4/3 287/4/3 286/4/3
f 289/4/3 287/4/3 288/4/3
f 290/4/3 287/4/3 289/4/3
f 292/4/3 290/4/3 289/4/3
f 292/4/3 291/4/3 290/4/3
f 293/4/3 291/4/3 292/4/3
f 297/3/3 295/3/3 294/3/3
f 298/2/3 296/2/3 295/2/3
f 298/3/3 295/3/3 297/3/3
f 299/2/3 296/2/3 298/2/3
f 300/3/4 301/3/4 303/3/4
f 301/2/4 302/2/4 304/2/4
f 303/3/4 301/3/4 304/3/4
f 304/2/4 302/2/4 305/2/4
f 306/4/4 307/4/4 308/4/4
f 308/4/4 307/4/4 309/4/4
f 310/4/4 311/4/4 312/4/4
f 312/4/4 311/4/4 313/4/4
f 314/4/4 315/4/4 316/4/4
f 316/4/4 315/4/4 317/4/4
f 318/3/4 319/3/4 323/3/4
f 319/2/4 320/2/4 324/2/4
f 323/3/4 319/3/4 324/3/4
f 324/2/4 320/2/4 325/2/4
f 321/4/4 322/4/4 329/4/4
f 329/4/4 322/4/4 330/4/4
f 326/4/4 327/4/4 331/4/4
f 331/4/4 327/4/4 332/4/4
f 328/4/4 329/4/4 333/4/4
f 333/4/4 329/4/4 334/4/4
f 335/4/4 336/4/4 339/4/4
f 339/4/4 336/4/4 340/4/4
f 337/4/4 338/4/4 341/4/4
f 341/4/4 338/4/4 342/4/4
f 343/4/4 344/4/4 345/4/4
f 345/4/4 344/4/4 346/4/4
f 347/4/4 348/4/4 349/4/4
f 349/4/4 348/4/4 350/4/4
f 351/4/4 352/4/4 353/4/4
f 353/4/4 352/4/4 354/4/4
f 355/4/4 356/4/4 359/4/4
f 359/4/4 356/4/4 360/4/4
f 357/1/4 358/1/4 363/1/4
f 363/1/4 358/1/4 364/1/4
f 360/4/4 361/4/4 366/4/4
f 366/4/4 361/4/4 367/4/4
f 364/5/4 365/5/4 369/5/4
f 369/5/4 365/5/4 370/5/4
f 367/4/4 368/4/4 372/4/4
f 372/4/4 368/4/4 373/4/4
f 369/4/4 370/4/4 374/4/4
f 370/5/4 371/5/4 375/5/4
f 374/4/4 370/4/4 375/4/4
f 375/5/4 371/5/4 376/5/4
f 362/2/4 363/2/4 379/2/4
f 379/2/4 363/2/4 380/2/4
f 374/5/4 375/5/4 381/5/4
f 381/5/4 375/5/4 382/5/4
f 377/4/4 378/4/4 384/4/4
f 384/4/4 378/4/4 385/4/4
f 380/1/4 381/1/4 386/1/4
f 386/1/4 381/1/4 387/1/4
f 383/4/4 384/4/4 389/4/4
f 389/4/4 384/4/4 390/4/4
f 388/4/4 389/4/4 391/4/4
f 391/4/4 389/4/4 392/4/4
f 396/4/4 397/4/4 400/4/4
f 396/4/4 400/4/4 402/4/4
f 400/4/4 401/4/4 402/4/4
f 402/4/4 401/4/4 403/4/4
f 403/4/4 401/4/4 404/4/4
f 404/4/4 405/4/4 407/4/4
f 403/4/4 404/4/4 407/4/4
f 407/4/4 405/4/4 408/4/4
f 408/4/4 405/4/4 409/4/4
f 393/3/4 394/3/4 410/3/4
f 394/2/4 395/2/4 411/2/4
f 410/3/4 394/3/4 411/3/4
f 411/2/4 395/2/4 412/2/4
f 398/1/4 399/1/4 413/1/4
f 413/1/4 399/1/4 414/1/4
f 406/4/4 407/4/4 415/4/4
f 407/4/4 408/4/4 415/4/4
f 415/4/4 408/4/4 416/4/4
f 406/4/4 415/4/4 417/4/4
f 417/4/4 415/4/4 418/4/4
f 422/3/5 420/3/5 419/3/5
f 423/3/5 420/3/5 422/3/5
f 423/3/5 422/3/5 421/3/5
f 425/3/5 423/3/5 421/3/5
f 425/3/5 424/3/5 423/3/5
f 426/3/5 424/3/5 425/3/5
f 428/3/5 424/3/5 426/3/5
f 429/3/5 424/3/5 428/3/5
f 430/3/5 424/3/5 429/3/5
f 431/3/5 428/3/5 427/3/5
f 431/3/5 429/3/5 428/3/5
f 432/3/5 429/3/5 431/3/5
f 436/1/5 434/1/5 433/1/5
f 437/1/5 434/1/5 436/1/5
f 439/1/5 436/1/5 435/1/5
f 440/1/5 436/1/5 439/1/5
f 441/1/5 438/1/5 437/1/5
f 442/1/5 438/1/5 441/1/5
f 443/1/5 441/1/5 440/1/5
f 444/1/5 441/1/5 443/1/5
f 449/4/5 448/4/5 447/4/5
f 450/4/5 448/4/5 449/4/5
f 451/4/5 446/4/5 445/4/5
f 455/4/5 451/4/5 445/4/5
f 455/4/5 452/4/5 451/4/5
f 456/4/5 452/4/5 455/4/5
f 457/4/5 454/4/5 453/4/5
f 458/4/5 452/4/5 456/4/5
f 461/4/5 454/4/5 457/4/5
f 462/4/5 459/4/5 458/4/5
f 462/4/5 458/4/5 456/4/5
f 463/4/5 459/4/5 462/4/5
f 464/4/5 461/4/5 460/4/5
f 465/4/5 454/4/5 461/4/5
f 465/4/5 461/4/5 464/4/5
f 470/4/5 467/4/5 466/4/5
f 471/4/5 467/4/5 470/4/5
f 472/4/5 469/4/5 468/4/5
f 473/4/5 469/4/5 472/4/5
f 478/4/5 475/4/5 474/4/5
f 479/4/5 475/4/5 478/4/5
f 480/4/5 477/4/5 476/4/5
f 481/4/5 477/4/5 480/4/5
f 484/4/5 483/4/5 482/4/5
f 485/4/5 483/4/5 484/4/5
f 490/4/5 487/4/5 486/4/5
f 491/4/5 487/4/5 490/4/5
f 492/4/5 489/4/5 488/4/5
f 493/4/5 489/4/5 492/4/5
f 496/4/5 495/4/5 494/4/5
f 497/4/5 495/4/5 496/4/5
f 502/4/5 499/4/5 498/4/5
f 503/4/5 499/4/5 502/4/5
f 504/4/5 501/4/5 500/4/5
f 505/4/5 501/4/5 504/4/5
f 506/2/6 507/2/6 509/2/6
f 509/2/6 507/2/6 510/2/6
f 508/2/6 509/2/6 511/2/6
f 511/2/6 509/2/6 512/2/6
f 513/2/6 514/2/6 515/2/6
f 515/2/6 514/2/6 516/2/6
f 517/2/6 518/2/6 520/2/6
f 520/2/6 518/2/6 521/2/6
f 519/2/6 520/2/6 522/2/6
f 522/2/6 520/2/6 523/2/6
f 524/2/6 525/2/6 526/2/6
f 524/2/6 526/2/6 528/2/6
f 526/2/6 527/2/6 528/2/6
f 528/2/6 527/2/6 529/2/6
f 530/2/6 531/2/6 532/2/6
f 530/2/6 532/2/6 534/2/6
f 532/2/6 533/2/6 534/2/6
f 534/2/6 533/2/6 535/2/6
f 535/2/6 533/2/6 536/2/6
f 536/2/6 533/2/6 537/2/6
f 538/1/6 539/1/6 542/1/6
f 542/1/6 539/1/6 543/1/6
f 540/1/6 541/1/6 544/1/6
f 544/1/6 541/1/6 545/1/6
f 548/1/6 549/1/6 550/1/6
f 546/1/6 547/1/6 551/1/6
f 551/1/6 547/1/6 552/1/6
f 550/1/6 549/1/6 555/1/6
f 555/1/6 549/1/6 556/1/6
f 553/1/6 554/1/6 557/1/6
f 554/1/6 555/1/6 557/1/6
f 552/1/6 553/1/6 557/1/6
f 557/1/6 555/1/6 558/1/6
f 559/4/6 560/4/6 563/4/6
f 563/4/6 560/4/6 564/4/6
f 561/4/6 562/4/6 567/4/6
f 567/4/6 562/4/6 568/4/6
f 564/4/6 565/4/6 569/4/6
f 569/4/6 565/4/6 570/4/6
f 566/4/6 567/4/6 571/4/6
f 571/4/6 567/4/6 572/4/6
f 573/4/6 574/4/6 577/4/6
f 577/4/6 574/4/6 578/4/6
f 575/4/6 576/4/6 580/4/6
f 580/4/6 576/4/6 581/4/6
f 582/4/6 583/4/6 584/4/6
f 584/4/6 583/4/6 585/4/6
f 579/4/6 580/4/6 588/4/6
f 588/4/6 580/4/6 589/4/6
f 585/4/6 586/4/6 590/4/6
f 590/4/6 586/4/6 591/4/6
f 587/4/6 588/4/6 592/4/6
f 592/4/6 588/4/6 593/4/6
f 594/4/6 595/4/6 597/4/6
f 597/4/6 595/4/6 598/4/6
f 596/4/6 597/4/6 600/4/6
f 598/4/6 599/4/6 600/4/6
f 597/4/6 598/4/6 600/4/6
f 600/4/6 599/4/6 601/4/6
f 601/4/6 599/4/6 602/4/6
f 602/4/6 599/4/6 603/4/6
f 601/4/6 602/4/6 604/4/6
f 604/4/6 602/4/6 605/4/6
f 601/4/6 604/4/6 606/4/6
f 606/4/6 604/4/6 607/4/6
f 607/4/6 604/4/6 608/4/6
f 608/4/6 604/4/6 609/4/6
f 609/4/6 604/4/6 610/4/6
f 610/4/6 604/4/6 611/4/6
f 609/4/6 610/4/6 612/4/6
f 612/4/6 610/4/6 613/4/6
