# MagicaVoxel @ Ephtracy

# group
o 

# material
mtllib Ballista-1.mtl
usemtl palette

# normals
vn -1 0 0
vn 1 0 0
vn 0 0 1
vn 0 0 -1
vn 0 -1 0
vn 0 1 0

# texcoords
vt 0.939453 0.5
vt 0.955078 0.5
vt 0.990234 0.5

# verts
v -0.8 2.9 2.3
v -0.8 2.9 2.2
v -0.8 3.1 2.2
v -0.8 3.1 1.9
v -0.8 3.2 2.5
v -0.8 3.2 2.3
v -0.8 3.2 2.1
v -0.8 3.2 1.9
v -0.8 3.3 2.5
v -0.8 3.3 2.2
v -0.8 3.5 2.2
v -0.8 3.5 2.1
v -0.6 2.9 2.3
v -0.6 2.9 2.1
v -0.6 3 2.4
v -0.6 3 2.3
v -0.6 3 2.1
v -0.6 3 2
v -0.6 3.1 2.5
v -0.6 3.1 2.4
v -0.6 3.1 2.3
v -0.6 3.1 2.1
v -0.6 3.1 2
v -0.6 3.1 1.9
v -0.6 3.3 2.5
v -0.6 3.3 2.4
v -0.6 3.3 2.3
v -0.6 3.3 2.1
v -0.6 3.3 2
v -0.6 3.3 1.9
v -0.6 3.4 2.4
v -0.6 3.4 2.3
v -0.6 3.4 2.1
v -0.6 3.4 2
v -0.6 3.5 2.3
v -0.6 3.5 2.1
v 0.7 2.9 2.3
v 0.7 2.9 2.2
v 0.7 3.1 2.3
v 0.7 3.1 2.2
v 0.7 3.1 2.1
v 0.7 3.1 1.9
v 0.7 3.2 2.5
v 0.7 3.2 2.3
v 0.7 3.2 2.1
v 0.7 3.2 1.9
v 0.7 3.3 2.5
v 0.7 3.3 2.3
v 0.7 3.3 2.2
v 0.7 3.3 2.1
v 0.7 3.5 2.2
v 0.7 3.5 2.1
v -0.7 2.9 2.3
v -0.7 2.9 2.2
v -0.7 3.1 2.3
v -0.7 3.1 2.2
v -0.7 3.1 2.1
v -0.7 3.1 1.9
v -0.7 3.2 2.5
v -0.7 3.2 2.3
v -0.7 3.2 2.1
v -0.7 3.2 1.9
v -0.7 3.3 2.5
v -0.7 3.3 2.3
v -0.7 3.3 2.2
v -0.7 3.3 2.1
v -0.7 3.5 2.2
v -0.7 3.5 2.1
v 0.6 2.9 2.3
v 0.6 2.9 2.1
v 0.6 3 2.4
v 0.6 3 2.3
v 0.6 3 2.1
v 0.6 3 2
v 0.6 3.1 2.5
v 0.6 3.1 2.4
v 0.6 3.1 2.3
v 0.6 3.1 2.1
v 0.6 3.1 2
v 0.6 3.1 1.9
v 0.6 3.3 2.5
v 0.6 3.3 2.4
v 0.6 3.3 2.3
v 0.6 3.3 2.1
v 0.6 3.3 2
v 0.6 3.3 1.9
v 0.6 3.4 2.4
v 0.6 3.4 2.3
v 0.6 3.4 2.1
v 0.6 3.4 2
v 0.6 3.5 2.3
v 0.6 3.5 2.1
v 0.8 2.9 2.3
v 0.8 2.9 2.2
v 0.8 3.1 2.2
v 0.8 3.1 1.9
v 0.8 3.2 2.5
v 0.8 3.2 2.3
v 0.8 3.2 2.1
v 0.8 3.2 1.9
v 0.8 3.3 2.5
v 0.8 3.3 2.2
v 0.8 3.5 2.2
v 0.8 3.5 2.1
v -0.8 3.2 2.5
v -0.8 3.3 2.5
v -0.7 3.2 2.5
v -0.7 3.3 2.5
v -0.6 3.1 2.5
v -0.6 3.3 2.5
v -0.4 3.1 2.5
v -0.4 3.3 2.5
v 0.4 3.1 2.5
v 0.4 3.3 2.5
v 0.6 3.1 2.5
v 0.6 3.3 2.5
v 0.7 3.2 2.5
v 0.7 3.3 2.5
v 0.8 3.2 2.5
v 0.8 3.3 2.5
v -0.6 3 2.4
v -0.6 3.1 2.4
v -0.6 3.3 2.4
v -0.6 3.4 2.4
v -0.4 3 2.4
v -0.4 3.1 2.4
v -0.4 3.3 2.4
v -0.4 3.4 2.4
v 0.4 3 2.4
v 0.4 3.1 2.4
v 0.4 3.3 2.4
v 0.4 3.4 2.4
v 0.6 3 2.4
v 0.6 3.1 2.4
v 0.6 3.3 2.4
v 0.6 3.4 2.4
v -0.8 2.9 2.3
v -0.8 3.2 2.3
v -0.7 2.9 2.3
v -0.7 3.1 2.3
v -0.7 3.2 2.3
v -0.7 3.3 2.3
v -0.6 2.9 2.3
v -0.6 3 2.3
v -0.6 3.1 2.3
v -0.6 3.3 2.3
v -0.6 3.4 2.3
v -0.6 3.5 2.3
v -0.4 2.9 2.3
v -0.4 3 2.3
v -0.4 3.4 2.3
v -0.4 3.5 2.3
v 0.4 2.9 2.3
v 0.4 3 2.3
v 0.4 3.4 2.3
v 0.4 3.5 2.3
v 0.6 2.9 2.3
v 0.6 3 2.3
v 0.6 3.1 2.3
v 0.6 3.3 2.3
v 0.6 3.4 2.3
v 0.6 3.5 2.3
v 0.7 2.9 2.3
v 0.7 3.1 2.3
v 0.7 3.2 2.3
v 0.7 3.3 2.3
v 0.8 2.9 2.3
v 0.8 3.2 2.3
v -0.8 3.3 2.2
v -0.8 3.5 2.2
v -0.7 3.3 2.2
v -0.7 3.5 2.2
v 0.7 3.3 2.2
v 0.7 3.5 2.2
v 0.8 3.3 2.2
v 0.8 3.5 2.2
v -0.8 2.9 2.2
v -0.8 3.1 2.2
v -0.7 2.9 2.2
v -0.7 3.1 2.2
v 0.7 2.9 2.2
v 0.7 3.1 2.2
v 0.8 2.9 2.2
v 0.8 3.1 2.2
v -0.8 3.2 2.1
v -0.8 3.5 2.1
v -0.7 3.1 2.1
v -0.7 3.2 2.1
v -0.7 3.3 2.1
v -0.7 3.5 2.1
v -0.6 2.9 2.1
v -0.6 3 2.1
v -0.6 3.1 2.1
v -0.6 3.3 2.1
v -0.6 3.4 2.1
v -0.6 3.5 2.1
v -0.4 2.9 2.1
v -0.4 3 2.1
v -0.4 3.4 2.1
v -0.4 3.5 2.1
v 0.4 2.9 2.1
v 0.4 3 2.1
v 0.4 3.4 2.1
v 0.4 3.5 2.1
v 0.6 2.9 2.1
v 0.6 3 2.1
v 0.6 3.1 2.1
v 0.6 3.3 2.1
v 0.6 3.4 2.1
v 0.6 3.5 2.1
v 0.7 3.1 2.1
v 0.7 3.2 2.1
v 0.7 3.3 2.1
v 0.7 3.5 2.1
v 0.8 3.2 2.1
v 0.8 3.5 2.1
v -0.6 3 2
v -0.6 3.1 2
v -0.6 3.3 2
v -0.6 3.4 2
v -0.4 3 2
v -0.4 3.1 2
v -0.4 3.3 2
v -0.4 3.4 2
v -0.3 3.1 2
v -0.3 3.3 2
v -0.0999998 3.3 2
v 0.1 3.3 2
v 0.3 3.1 2
v 0.3 3.3 2
v 0.4 3 2
v 0.4 3.1 2
v 0.4 3.3 2
v 0.4 3.4 2
v 0.6 3 2
v 0.6 3.1 2
v 0.6 3.3 2
v 0.6 3.4 2
v -0.8 3.1 1.9
v -0.8 3.2 1.9
v -0.7 3.1 1.9
v -0.7 3.2 1.9
v -0.6 3.1 1.9
v -0.6 3.3 1.9
v -0.4 3.1 1.9
v -0.4 3.3 1.9
v -0.3 3.1 1.9
v -0.3 3.3 1.9
v -0.0999998 3.2 1.9
v -0.0999998 3.3 1.9
v 0.1 3.2 1.9
v 0.1 3.3 1.9
v 0.3 3.1 1.9
v 0.3 3.3 1.9
v 0.4 3.1 1.9
v 0.4 3.3 1.9
v 0.6 3.1 1.9
v 0.6 3.3 1.9
v 0.7 3.1 1.9
v 0.7 3.2 1.9
v 0.8 3.1 1.9
v 0.8 3.2 1.9
v -0.8 2.9 2.3
v -0.7 2.9 2.3
v -0.6 2.9 2.3
v -0.4 2.9 2.3
v 0.4 2.9 2.3
v 0.6 2.9 2.3
v 0.7 2.9 2.3
v 0.8 2.9 2.3
v -0.8 2.9 2.2
v -0.7 2.9 2.2
v 0.7 2.9 2.2
v 0.8 2.9 2.2
v -0.6 2.9 2.1
v -0.4 2.9 2.1
v 0.4 2.9 2.1
v 0.6 2.9 2.1
v -0.6 3 2.4
v -0.4 3 2.4
v 0.4 3 2.4
v 0.6 3 2.4
v -0.6 3 2.3
v -0.4 3 2.3
v 0.4 3 2.3
v 0.6 3 2.3
v -0.6 3 2.1
v -0.4 3 2.1
v 0.4 3 2.1
v 0.6 3 2.1
v -0.6 3 2
v -0.4 3 2
v 0.4 3 2
v 0.6 3 2
v -0.6 3.1 2.5
v -0.4 3.1 2.5
v 0.4 3.1 2.5
v 0.6 3.1 2.5
v -0.6 3.1 2.4
v -0.4 3.1 2.4
v 0.4 3.1 2.4
v 0.6 3.1 2.4
v -0.7 3.1 2.3
v -0.6 3.1 2.3
v 0.6 3.1 2.3
v 0.7 3.1 2.3
v -0.8 3.1 2.2
v -0.7 3.1 2.2
v 0.7 3.1 2.2
v 0.8 3.1 2.2
v -0.7 3.1 2.1
v -0.6 3.1 2.1
v 0.6 3.1 2.1
v 0.7 3.1 2.1
v -0.6 3.1 2
v -0.4 3.1 2
v -0.3 3.1 2
v 0.3 3.1 2
v 0.4 3.1 2
v 0.6 3.1 2
v -0.8 3.1 1.9
v -0.7 3.1 1.9
v -0.6 3.1 1.9
v -0.4 3.1 1.9
v -0.3 3.1 1.9
v 0.3 3.1 1.9
v 0.4 3.1 1.9
v 0.6 3.1 1.9
v 0.7 3.1 1.9
v 0.8 3.1 1.9
v -0.8 3.2 2.5
v -0.7 3.2 2.5
v 0.7 3.2 2.5
v 0.8 3.2 2.5
v -0.8 3.2 2.3
v -0.7 3.2 2.3
v 0.7 3.2 2.3
v 0.8 3.2 2.3
v -0.8 3.2 2.1
v -0.7 3.2 2.1
v 0.7 3.2 2.1
v 0.8 3.2 2.1
v -0.8 3.2 1.9
v -0.7 3.2 1.9
v 0.7 3.2 1.9
v 0.8 3.2 1.9
v -0.8 3.3 2.5
v -0.7 3.3 2.5
v -0.6 3.3 2.5
v -0.4 3.3 2.5
v 0.4 3.3 2.5
v 0.6 3.3 2.5
v 0.7 3.3 2.5
v 0.8 3.3 2.5
v -0.6 3.3 2.4
v -0.4 3.3 2.4
v 0.4 3.3 2.4
v 0.6 3.3 2.4
v -0.7 3.3 2.3
v -0.6 3.3 2.3
v 0.6 3.3 2.3
v 0.7 3.3 2.3
v -0.8 3.3 2.2
v -0.7 3.3 2.2
v 0.7 3.3 2.2
v 0.8 3.3 2.2
v -0.7 3.3 2.1
v -0.6 3.3 2.1
v 0.6 3.3 2.1
v 0.7 3.3 2.1
v -0.6 3.3 2
v -0.4 3.3 2
v -0.3 3.3 2
v -0.0999998 3.3 2
v 0.1 3.3 2
v 0.3 3.3 2
v 0.4 3.3 2
v 0.6 3.3 2
v -0.6 3.3 1.9
v -0.4 3.3 1.9
v -0.3 3.3 1.9
v -0.0999998 3.3 1.9
v 0.1 3.3 1.9
v 0.3 3.3 1.9
v 0.4 3.3 1.9
v 0.6 3.3 1.9
v -0.6 3.4 2.4
v -0.4 3.4 2.4
v 0.4 3.4 2.4
v 0.6 3.4 2.4
v -0.6 3.4 2.3
v -0.4 3.4 2.3
v 0.4 3.4 2.3
v 0.6 3.4 2.3
v -0.6 3.4 2.1
v -0.4 3.4 2.1
v 0.4 3.4 2.1
v 0.6 3.4 2.1
v -0.6 3.4 2
v -0.4 3.4 2
v 0.4 3.4 2
v 0.6 3.4 2
v -0.6 3.5 2.3
v -0.4 3.5 2.3
v 0.4 3.5 2.3
v 0.6 3.5 2.3
v -0.8 3.5 2.2
v -0.7 3.5 2.2
v 0.7 3.5 2.2
v 0.8 3.5 2.2
v -0.8 3.5 2.1
v -0.7 3.5 2.1
v -0.6 3.5 2.1
v -0.4 3.5 2.1
v 0.4 3.5 2.1
v 0.6 3.5 2.1
v 0.7 3.5 2.1
v 0.8 3.5 2.1

# faces
f 3/1/1 2/1/1 1/1/1
f 6/1/1 3/1/1 1/1/1
f 6/1/1 4/1/1 3/1/1
f 7/1/1 4/1/1 6/1/1
f 8/1/1 4/1/1 7/1/1
f 9/1/1 6/1/1 5/1/1
f 9/1/1 7/1/1 6/1/1
f 10/1/1 7/1/1 9/1/1
f 11/1/1 7/1/1 10/1/1
f 12/1/1 7/1/1 11/1/1
f 16/2/1 14/2/1 13/2/1
f 17/2/1 14/2/1 16/2/1
f 20/2/1 16/2/1 15/2/1
f 20/2/1 18/2/1 17/2/1
f 20/2/1 17/2/1 16/2/1
f 21/2/1 18/2/1 20/2/1
f 22/2/1 18/2/1 21/2/1
f 23/2/1 18/2/1 22/2/1
f 25/2/1 20/2/1 19/2/1
f 25/2/1 21/2/1 20/2/1
f 26/2/1 21/2/1 25/2/1
f 27/2/1 21/2/1 26/2/1
f 28/2/1 24/2/1 23/2/1
f 28/2/1 23/2/1 22/2/1
f 29/2/1 24/2/1 28/2/1
f 30/2/1 24/2/1 29/2/1
f 31/2/1 27/2/1 26/2/1
f 31/2/1 29/2/1 28/2/1
f 31/2/1 28/2/1 27/2/1
f 32/2/1 29/2/1 31/2/1
f 33/2/1 29/2/1 32/2/1
f 34/2/1 29/2/1 33/2/1
f 35/2/1 33/2/1 32/2/1
f 36/2/1 33/2/1 35/2/1
f 39/1/1 38/1/1 37/1/1
f 40/1/1 38/1/1 39/1/1
f 45/1/1 42/1/1 41/1/1
f 46/1/1 42/1/1 45/1/1
f 47/1/1 44/1/1 43/1/1
f 48/1/1 44/1/1 47/1/1
f 51/1/1 50/1/1 49/1/1
f 52/1/1 50/1/1 51/1/1
f 53/1/2 54/1/2 55/1/2
f 55/1/2 54/1/2 56/1/2
f 57/1/2 58/1/2 61/1/2
f 61/1/2 58/1/2 62/1/2
f 59/1/2 60/1/2 63/1/2
f 63/1/2 60/1/2 64/1/2
f 65/1/2 66/1/2 67/1/2
f 67/1/2 66/1/2 68/1/2
f 69/2/2 70/2/2 72/2/2
f 72/2/2 70/2/2 73/2/2
f 71/2/2 72/2/2 76/2/2
f 73/2/2 74/2/2 76/2/2
f 72/2/2 73/2/2 76/2/2
f 76/2/2 74/2/2 77/2/2
f 77/2/2 74/2/2 78/2/2
f 78/2/2 74/2/2 79/2/2
f 75/2/2 76/2/2 81/2/2
f 76/2/2 77/2/2 81/2/2
f 81/2/2 77/2/2 82/2/2
f 82/2/2 77/2/2 83/2/2
f 79/2/2 80/2/2 84/2/2
f 78/2/2 79/2/2 84/2/2
f 84/2/2 80/2/2 85/2/2
f 85/2/2 80/2/2 86/2/2
f 82/2/2 83/2/2 87/2/2
f 84/2/2 85/2/2 87/2/2
f 83/2/2 84/2/2 87/2/2
f 87/2/2 85/2/2 88/2/2
f 88/2/2 85/2/2 89/2/2
f 89/2/2 85/2/2 90/2/2
f 88/2/2 89/2/2 91/2/2
f 91/2/2 89/2/2 92/2/2
f 93/1/2 94/1/2 95/1/2
f 93/1/2 95/1/2 98/1/2
f 95/1/2 96/1/2 98/1/2
f 98/1/2 96/1/2 99/1/2
f 99/1/2 96/1/2 100/1/2
f 97/1/2 98/1/2 101/1/2
f 98/1/2 99/1/2 101/1/2
f 101/1/2 99/1/2 102/1/2
f 102/1/2 99/1/2 103/1/2
f 103/1/2 99/1/2 104/1/2
f 107/1/3 106/1/3 105/1/3
f 108/1/3 106/1/3 107/1/3
f 111/2/3 110/2/3 109/2/3
f 112/2/3 110/2/3 111/2/3
f 113/3/3 112/3/3 111/3/3
f 114/3/3 112/3/3 113/3/3
f 115/2/3 114/2/3 113/2/3
f 116/2/3 114/2/3 115/2/3
f 119/1/3 118/1/3 117/1/3
f 120/1/3 118/1/3 119/1/3
f 125/2/3 122/2/3 121/2/3
f 126/2/3 122/2/3 125/2/3
f 127/2/3 124/2/3 123/2/3
f 128/2/3 124/2/3 127/2/3
f 129/3/3 126/3/3 125/3/3
f 130/3/3 126/3/3 129/3/3
f 131/3/3 128/3/3 127/3/3
f 132/3/3 128/3/3 131/3/3
f 133/2/3 130/2/3 129/2/3
f 134/2/3 130/2/3 133/2/3
f 135/2/3 132/2/3 131/2/3
f 136/2/3 132/2/3 135/2/3
f 139/1/3 138/1/3 137/1/3
f 140/1/3 138/1/3 139/1/3
f 141/1/3 138/1/3 140/1/3
f 145/1/3 142/1/3 141/1/3
f 145/1/3 141/1/3 140/1/3
f 146/1/3 142/1/3 145/1/3
f 149/2/3 144/2/3 143/2/3
f 150/2/3 144/2/3 149/2/3
f 151/2/3 148/2/3 147/2/3
f 152/2/3 148/2/3 151/2/3
f 153/3/3 150/3/3 149/3/3
f 154/3/3 150/3/3 153/3/3
f 155/3/3 152/3/3 151/3/3
f 156/3/3 152/3/3 155/3/3
f 157/2/3 154/2/3 153/2/3
f 158/2/3 154/2/3 157/2/3
f 161/2/3 156/2/3 155/2/3
f 162/2/3 156/2/3 161/2/3
f 164/1/3 160/1/3 159/1/3
f 165/1/3 160/1/3 164/1/3
f 166/1/3 160/1/3 165/1/3
f 167/1/3 164/1/3 163/1/3
f 167/1/3 165/1/3 164/1/3
f 168/1/3 165/1/3 167/1/3
f 171/1/3 170/1/3 169/1/3
f 172/1/3 170/1/3 171/1/3
f 175/1/3 174/1/3 173/1/3
f 176/1/3 174/1/3 175/1/3
f 177/1/4 178/1/4 179/1/4
f 179/1/4 178/1/4 180/1/4
f 181/1/4 182/1/4 183/1/4
f 183/1/4 182/1/4 184/1/4
f 185/1/4 186/1/4 188/1/4
f 188/1/4 186/1/4 189/1/4
f 189/1/4 186/1/4 190/1/4
f 187/1/4 188/1/4 193/1/4
f 188/1/4 189/1/4 193/1/4
f 193/1/4 189/1/4 194/1/4
f 191/2/4 192/2/4 197/2/4
f 197/2/4 192/2/4 198/2/4
f 195/2/4 196/2/4 199/2/4
f 199/2/4 196/2/4 200/2/4
f 197/3/4 198/3/4 201/3/4
f 201/3/4 198/3/4 202/3/4
f 199/3/4 200/3/4 203/3/4
f 203/3/4 200/3/4 204/3/4
f 201/2/4 202/2/4 205/2/4
f 205/2/4 202/2/4 206/2/4
f 203/2/4 204/2/4 209/2/4
f 209/2/4 204/2/4 210/2/4
f 207/1/4 208/1/4 211/1/4
f 211/1/4 208/1/4 212/1/4
f 212/1/4 208/1/4 213/1/4
f 213/1/4 214/1/4 215/1/4
f 212/1/4 213/1/4 215/1/4
f 215/1/4 214/1/4 216/1/4
f 217/2/4 218/2/4 221/2/4
f 221/2/4 218/2/4 222/2/4
f 219/2/4 220/2/4 223/2/4
f 223/2/4 220/2/4 224/2/4
f 221/3/4 222/3/4 225/3/4
f 223/3/4 224/3/4 226/3/4
f 226/3/4 224/3/4 227/3/4
f 227/3/4 224/3/4 228/3/4
f 221/3/4 225/3/4 229/3/4
f 228/3/4 224/3/4 230/3/4
f 221/3/4 229/3/4 231/3/4
f 231/3/4 229/3/4 232/3/4
f 230/3/4 224/3/4 233/3/4
f 233/3/4 224/3/4 234/3/4
f 231/2/4 232/2/4 235/2/4
f 235/2/4 232/2/4 236/2/4
f 233/2/4 234/2/4 237/2/4
f 237/2/4 234/2/4 238/2/4
f 239/1/4 240/1/4 241/1/4
f 241/1/4 240/1/4 242/1/4
f 243/2/4 244/2/4 245/2/4
f 245/2/4 244/2/4 246/2/4
f 245/3/4 246/3/4 247/3/4
f 247/3/4 246/3/4 248/3/4
f 247/2/4 248/2/4 249/2/4
f 249/2/4 248/2/4 250/2/4
f 247/2/4 249/2/4 251/2/4
f 249/3/4 250/3/4 251/3/4
f 251/3/4 250/3/4 252/3/4
f 247/2/4 251/2/4 253/2/4
f 251/2/4 252/2/4 253/2/4
f 253/2/4 252/2/4 254/2/4
f 253/3/4 254/3/4 255/3/4
f 255/3/4 254/3/4 256/3/4
f 255/2/4 256/2/4 257/2/4
f 257/2/4 256/2/4 258/2/4
f 259/1/4 260/1/4 261/1/4
f 261/1/4 260/1/4 262/1/4
f 271/1/5 264/1/5 263/1/5
f 272/1/5 264/1/5 271/1/5
f 273/1/5 270/1/5 269/1/5
f 274/1/5 270/1/5 273/1/5
f 275/2/5 266/2/5 265/2/5
f 276/3/5 267/3/5 266/3/5
f 276/2/5 266/2/5 275/2/5
f 277/2/5 268/2/5 267/2/5
f 277/3/5 267/3/5 276/3/5
f 278/2/5 268/2/5 277/2/5
f 283/2/5 280/2/5 279/2/5
f 284/3/5 281/3/5 280/3/5
f 284/2/5 280/2/5 283/2/5
f 285/2/5 282/2/5 281/2/5
f 285/3/5 281/3/5 284/3/5
f 286/2/5 282/2/5 285/2/5
f 291/2/5 288/2/5 287/2/5
f 292/3/5 289/3/5 288/3/5
f 292/2/5 288/2/5 291/2/5
f 293/2/5 290/2/5 289/2/5
f 293/3/5 289/3/5 292/3/5
f 294/2/5 290/2/5 293/2/5
f 299/2/5 296/2/5 295/2/5
f 300/3/5 297/3/5 296/3/5
f 300/2/5 296/2/5 299/2/5
f 301/2/5 298/2/5 297/2/5
f 301/3/5 297/3/5 300/3/5
f 302/2/5 298/2/5 301/2/5
f 308/1/5 304/1/5 303/1/5
f 309/1/5 306/1/5 305/1/5
f 311/1/5 308/1/5 307/1/5
f 311/1/5 304/1/5 308/1/5
f 312/1/5 304/1/5 311/1/5
f 313/1/5 310/1/5 309/1/5
f 313/1/5 309/1/5 305/1/5
f 314/1/5 310/1/5 313/1/5
f 321/1/5 311/1/5 307/1/5
f 322/1/5 311/1/5 321/1/5
f 323/2/5 316/2/5 315/2/5
f 324/3/5 317/3/5 316/3/5
f 324/2/5 316/2/5 323/2/5
f 325/2/5 318/2/5 317/2/5
f 325/3/5 317/3/5 324/3/5
f 326/3/5 319/3/5 318/3/5
f 326/2/5 318/2/5 325/2/5
f 327/2/5 320/2/5 319/2/5
f 327/3/5 319/3/5 326/3/5
f 328/2/5 320/2/5 327/2/5
f 329/1/5 310/1/5 314/1/5
f 330/1/5 310/1/5 329/1/5
f 335/1/5 332/1/5 331/1/5
f 336/1/5 332/1/5 335/1/5
f 337/1/5 334/1/5 333/1/5
f 338/1/5 334/1/5 337/1/5
f 339/1/6 340/1/6 343/1/6
f 343/1/6 340/1/6 344/1/6
f 341/1/6 342/1/6 345/1/6
f 345/1/6 342/1/6 346/1/6
f 349/2/6 350/2/6 355/2/6
f 350/3/6 351/3/6 356/3/6
f 355/2/6 350/2/6 356/2/6
f 351/2/6 352/2/6 357/2/6
f 356/3/6 351/3/6 357/3/6
f 357/2/6 352/2/6 358/2/6
f 347/1/6 348/1/6 359/1/6
f 353/1/6 354/1/6 362/1/6
f 359/1/6 360/1/6 363/1/6
f 347/1/6 359/1/6 363/1/6
f 363/1/6 360/1/6 364/1/6
f 361/1/6 362/1/6 365/1/6
f 362/1/6 354/1/6 365/1/6
f 365/1/6 354/1/6 366/1/6
f 364/1/6 360/1/6 367/1/6
f 367/1/6 360/1/6 368/1/6
f 361/1/6 365/1/6 369/1/6
f 369/1/6 365/1/6 370/1/6
f 371/2/6 372/2/6 379/2/6
f 372/3/6 373/3/6 380/3/6
f 379/2/6 372/2/6 380/2/6
f 373/2/6 374/2/6 381/2/6
f 380/3/6 373/3/6 381/3/6
f 374/3/6 375/3/6 382/3/6
f 381/2/6 374/2/6 382/2/6
f 375/2/6 376/2/6 383/2/6
f 382/3/6 375/3/6 383/3/6
f 376/3/6 377/3/6 384/3/6
f 383/2/6 376/2/6 384/2/6
f 377/2/6 378/2/6 385/2/6
f 384/3/6 377/3/6 385/3/6
f 385/2/6 378/2/6 386/2/6
f 387/2/6 388/2/6 391/2/6
f 388/3/6 389/3/6 392/3/6
f 391/2/6 388/2/6 392/2/6
f 389/2/6 390/2/6 393/2/6
f 392/3/6 389/3/6 393/3/6
f 393/2/6 390/2/6 394/2/6
f 395/2/6 396/2/6 399/2/6
f 396/3/6 397/3/6 400/3/6
f 399/2/6 396/2/6 400/2/6
f 397/2/6 398/2/6 401/2/6
f 400/3/6 397/3/6 401/3/6
f 401/2/6 398/2/6 402/2/6
f 407/1/6 408/1/6 411/1/6
f 411/1/6 408/1/6 412/1/6
f 403/2/6 404/2/6 413/2/6
f 404/3/6 405/3/6 414/3/6
f 413/2/6 404/2/6 414/2/6
f 405/2/6 406/2/6 415/2/6
f 414/3/6 405/3/6 415/3/6
f 415/2/6 406/2/6 416/2/6
f 409/1/6 410/1/6 417/1/6
f 417/1/6 410/1/6 418/1/6
